<svg width="16" height="16" viewBox="0 0 16 16" fill="none" xmlns="http://www.w3.org/2000/svg">
<rect width="16" height="16" rx="8" fill="#132E8D"/>
<path d="M11.7344 6.35156C11.7344 6.64128 11.6986 6.90007 11.627 7.12793C11.5553 7.35579 11.4577 7.55762 11.334 7.7334C11.2135 7.90592 11.0736 8.05404 10.9141 8.17773C10.7546 8.30143 10.5869 8.40397 10.4111 8.48535C10.2386 8.56348 10.0628 8.62044 9.88379 8.65625C9.70801 8.69206 9.54199 8.70996 9.38574 8.70996L12.0371 11H10.0742L7.42773 8.70996H6.51465V7.44043H9.38574C9.54525 7.42741 9.6901 7.39486 9.82031 7.34277C9.95378 7.28743 10.0677 7.21419 10.1621 7.12305C10.2598 7.0319 10.3346 6.92285 10.3867 6.7959C10.4388 6.66569 10.4648 6.51758 10.4648 6.35156V5.55078C10.4648 5.47917 10.4551 5.42546 10.4355 5.38965C10.4193 5.35059 10.3965 5.32292 10.3672 5.30664C10.3411 5.28711 10.3118 5.27572 10.2793 5.27246C10.25 5.26921 10.2223 5.26758 10.1963 5.26758H6.00684V11H4.7373V4.6377C4.7373 4.5498 4.75358 4.4668 4.78613 4.38867C4.81868 4.31055 4.86263 4.24219 4.91797 4.18359C4.97656 4.125 5.04492 4.07943 5.12305 4.04688C5.20117 4.01432 5.28581 3.99805 5.37695 3.99805H10.1963C10.4795 3.99805 10.7188 4.05013 10.9141 4.1543C11.1094 4.25521 11.2673 4.38379 11.3877 4.54004C11.5114 4.69303 11.5993 4.85905 11.6514 5.03809C11.7067 5.21712 11.7344 5.38477 11.7344 5.54102V6.35156Z" fill="white"/>
</svg>
