<?xml version="1.0" encoding="utf-8"?>
<!-- Generator: Adobe Illustrator 27.5.0, SVG Export Plug-In . SVG Version: 6.00 Build 0)  -->
<svg version="1.1" xmlns="http://www.w3.org/2000/svg" xmlns:xlink="http://www.w3.org/1999/xlink" x="0px" y="0px"
	 viewBox="0 0 500 500" style="enable-background:new 0 0 500 500;" xml:space="preserve">
<g id="BACKGROUND">
	<rect style="fill-rule:evenodd;clip-rule:evenodd;fill:#FFFFFF;" width="500" height="500"/>
</g>
<g id="OBJECTS">
	<g>
		<path style="fill-rule:evenodd;clip-rule:evenodd;fill:#E1E8F6;" d="M401.989,437.885c40.156,0,73.011-32.855,73.011-73.012l0,0
			c0-40.156-32.855-73.01-73.01-73.01c-16.98,0-30.871-13.893-30.871-30.871l0,0c0-16.979,13.892-30.871,30.871-30.871h3.673
			c17.653,0,32.096-14.442,32.096-32.095l0,0c0-17.653-14.442-32.096-32.096-32.096h-11.27c-6.873,0-12.495-5.623-12.495-12.495
			v-0.001c0-6.872,5.622-12.495,12.495-12.495h8.281c4.743,0,8.624-3.881,8.624-8.624l0,0c0-4.743-3.881-8.624-8.624-8.624h-55.672
			c-7.453,0-13.551-6.097-13.551-13.55l0,0c0-7.453,6.098-13.55,13.551-13.55h16.645c4.743,0,8.624-3.881,8.624-8.624l0,0
			c0-4.743-3.881-8.624-8.624-8.624H153.254c-6.189,0-11.253,5.064-11.253,11.253v0c0,6.188,5.064,11.253,11.253,11.253h99.558
			c9.725,0,17.682,7.957,17.682,17.682v0c0,9.724-7.957,17.681-17.682,17.681H70.877c-6.189,0-11.252,5.064-11.252,11.252v0.001
			c0,6.189,5.064,11.252,11.252,11.252h64.162c8.967,0,16.304,7.337,16.304,16.305l0,0c0,8.968-7.337,16.305-16.304,16.305h-14.707
			c-23.034,0-41.88,18.846-41.88,41.88v0.001c0,23.035,18.846,41.88,41.88,41.88h4.794c22.155,0,40.282,18.127,40.282,40.281l0,0
			c0,22.156-18.127,40.283-40.282,40.283h-49.2c-22.338,0-40.615,18.277-40.615,40.615l0,0c0,22.338,18.276,40.615,40.615,40.615
			C191.498,437.885,286.418,437.885,401.989,437.885L401.989,437.885z M124.46,101.851c-6.215,0-11.253-5.038-11.253-11.253
			c0-6.215,5.038-11.253,11.253-11.253c6.215,0,11.253,5.038,11.253,11.253C135.713,96.813,130.675,101.851,124.46,101.851
			L124.46,101.851z M426.875,140.941c-4.763,0-8.624-3.861-8.624-8.624c0-4.763,3.861-8.624,8.624-8.624
			c4.763,0,8.624,3.861,8.624,8.624C435.499,137.08,431.638,140.941,426.875,140.941z"/>
		<g>
			<g>
				<path style="fill-rule:evenodd;clip-rule:evenodd;fill:#B4C5E6;" d="M393.951,255.83c1.079-25.322-24.723-19.285-40.305-2.191
					c-15.581,17.096-61.361,88.465-86.148,102.898c-9.607,5.594-7.625,6.936,0.148,5.182
					C306.415,352.961,392.465,290.688,393.951,255.83z"/>
				<path style="fill-rule:evenodd;clip-rule:evenodd;fill:#9FB2D9;" d="M261.185,361.242c-0.555,0.98,0.418,1.338,2.531,1.148
					c62.919-26.51,118.77-112.309,118.95-112.583c0.31-0.471,0.178-1.104-0.293-1.413c-0.471-0.309-1.103-0.178-1.413,0.293
					C380.779,248.962,324.165,335.932,261.185,361.242z"/>
			</g>
			<g>
				<path style="fill-rule:evenodd;clip-rule:evenodd;fill:#9FB2D9;" d="M368.961,173.198c-9.505-18.927-25.89-4.032-30.318,14.782
					c-4.429,18.814-8.846,89.53-21.077,110.143c-4.741,7.988-2.748,8.164,2.214,3.723
					C344.527,279.693,382.044,199.252,368.961,173.198z"/>
				<path style="fill-rule:evenodd;clip-rule:evenodd;fill:#B4C5E6;" d="M314.868,304.125c-0.006,0.94,0.849,0.807,2.315-0.191
					c35.163-44.928,41.069-130.273,41.09-130.547c0.034-0.469-0.319-0.878-0.788-0.913c-0.47-0.034-0.879,0.319-0.913,0.789
					C356.553,173.537,350.565,260.047,314.868,304.125z"/>
			</g>
			<g>
				<path style="fill-rule:evenodd;clip-rule:evenodd;fill:#9FB2D9;" d="M393.321,287.48c19.155,4.984,8.746,22.871-7.582,30.596
					c-7.004,3.314-22.735,8.492-39.715,14.527h-39.208C333.25,307.992,373.987,282.447,393.321,287.48z"/>
				<path style="fill-rule:evenodd;clip-rule:evenodd;fill:#C0CDEA;" d="M316.743,332.603c35.841-23.057,78.311-35.268,78.495-35.32
					c0.422-0.123,0.864,0.119,0.987,0.543c0.123,0.422-0.119,0.863-0.542,0.986c-0.178,0.053-40.877,11.752-76.015,33.791H316.743z"
					/>
			</g>
		</g>
		<g>
			<g>
				<path style="fill-rule:evenodd;clip-rule:evenodd;fill:#C0CDEA;" d="M25.156,264.359c3.395-33.625,36.297-20.747,53.608,4.779
					c15.349,22.633,53.908,106.092,83.34,141.287h-22.042C88.371,374.709,21.341,302.131,25.156,264.359z"/>
				<path style="fill-rule:evenodd;clip-rule:evenodd;fill:#9FB2D9;" d="M150.259,410.426
					c-64.15-54.94-108.9-151.518-109.065-151.867c-0.318-0.68-0.024-1.49,0.656-1.809c0.68-0.318,1.491-0.025,1.809,0.654
					c0.165,0.354,45.865,98.982,110.757,153.022H150.259z"/>
			</g>
			<g>
				<path style="fill-rule:evenodd;clip-rule:evenodd;fill:#ADBFE3;" d="M103.975,269.277c11.201-25.924,34.154-7.352,41.492,17.354
					c5.957,20.057,14.524,85.637,27.093,123.795h-17.174C124.171,368.244,91.808,297.435,103.975,269.277z"/>
				<path style="fill-rule:evenodd;clip-rule:evenodd;fill:#E1E8F6;" d="M162.66,410.426
					c-33.985-59.609-44.403-141.408-44.443-141.715c-0.082-0.623,0.357-1.193,0.979-1.275c0.623-0.082,1.193,0.358,1.275,0.979
					c0.041,0.309,10.549,82.818,44.771,142.012H162.66z"/>
			</g>
			<g>
				<path style="fill-rule:evenodd;clip-rule:evenodd;fill:#9FB2D9;" d="M56.596,358.029c-25.479,6.885-11.379,30.604,10.488,40.703
					c6.355,2.934,18.069,6.963,32.026,11.693h65.797C129.57,380.217,80.546,351.559,56.596,358.029z"/>
				<path style="fill-rule:evenodd;clip-rule:evenodd;fill:#B4C5E6;" d="M147.891,410.426
					c-45.211-25.84-93.504-39.238-93.729-39.301c-0.564-0.158-1.152,0.17-1.311,0.734c-0.159,0.564,0.17,1.152,0.735,1.31
					c0.218,0.063,46.068,12.785,90.035,37.256H147.891z"/>
			</g>
		</g>
		<g>
			<path style="fill-rule:evenodd;clip-rule:evenodd;fill:#101537;" d="M299.705,155.694l56.233,17.509
				c2.101,0.654,3.072,1.532,2.917,2.393l0,0v4.383H348.4l-48.695,15.162c-1.955,0.609-4.533,0.914-7.111,0.914
				c-2.578,0-5.155-0.305-7.111-0.914l-48.695-15.162h-10.455v-4.383l0,0c-0.156-0.861,0.816-1.739,2.917-2.393l56.233-17.509
				c1.956-0.609,4.533-0.913,7.111-0.913C295.172,154.78,297.75,155.085,299.705,155.694z"/>
			<path style="fill-rule:evenodd;clip-rule:evenodd;fill:#00000F;" d="M299.705,160.436l56.233,17.509
				c3.911,1.218,3.911,3.211,0,4.429l-56.233,17.509c-1.955,0.609-4.533,0.913-7.111,0.913c-2.578,0-5.155-0.304-7.111-0.913
				l-56.233-17.509c-3.912-1.218-3.912-3.211,0-4.429l56.233-17.509c1.956-0.609,4.533-0.914,7.111-0.914
				C295.172,159.522,297.75,159.827,299.705,160.436z"/>
			<path style="fill-rule:evenodd;clip-rule:evenodd;fill:#101537;" d="M325.077,183.158V228.8H260.11v-45.643
				c0-3.172,14.543-5.745,32.483-5.745C310.534,177.413,325.077,179.985,325.077,183.158z"/>
			<path style="fill-rule:evenodd;clip-rule:evenodd;fill:#F18A00;" d="M240.024,188.19l5.007,3.92
				c0.108,0.085,0.246,0.099,0.37,0.039c0.123-0.06,0.197-0.178,0.197-0.315V167.51l-11.149,3.471v20.853
				c0,0.137,0.074,0.255,0.197,0.315c0.124,0.06,0.262,0.045,0.37-0.039L240.024,188.19z"/>
		</g>
		<path style="fill-rule:evenodd;clip-rule:evenodd;fill:#9FB2D9;" d="M98.399,194.767h24.273c2.425,0,4.408,1.983,4.408,4.408v0
			c0,2.424-1.983,4.408-4.408,4.408h-1.905v34.127c14.243,4.371,24.598,17.626,24.598,33.302c0,19.234-15.593,34.828-34.829,34.828
			c-19.236,0-34.829-15.594-34.829-34.828c0-15.676,10.355-28.931,24.598-33.302v-34.127h-1.906c-2.424,0-4.408-1.983-4.408-4.408v0
			C93.991,196.751,95.975,194.767,98.399,194.767z"/>
		<g>
			<path style="fill-rule:evenodd;clip-rule:evenodd;fill:#004C84;" d="M218.697,402.103h112.255
				c5.797,0,10.539-4.742,10.539-10.539V220.053c0-5.797-4.742-10.54-10.539-10.54H218.697c-5.797,0-10.54,4.743-10.54,10.54
				v171.511C208.157,397.361,212.9,402.103,218.697,402.103z"/>
			<path style="fill-rule:evenodd;clip-rule:evenodd;fill:#FFFFFF;" d="M213.238,402.103h112.255c5.797,0,10.54-4.742,10.54-10.539
				V220.053c0-5.797-4.743-10.54-10.54-10.54H213.238c-5.797,0-10.54,4.743-10.54,10.54v171.511
				C202.699,397.361,207.441,402.103,213.238,402.103z"/>
			<path style="fill-rule:evenodd;clip-rule:evenodd;fill:#1874BA;" d="M202.443,402.103h112.255c5.797,0,10.54-4.742,10.54-10.539
				V220.053c0-5.797-4.743-10.54-10.54-10.54H202.443c-5.797,0-10.54,4.743-10.54,10.54v171.511
				C191.904,397.361,196.646,402.103,202.443,402.103z"/>
			<path style="fill-rule:evenodd;clip-rule:evenodd;fill:#004C84;" d="M202.443,402.103h8.513v-192.59h-8.513
				c-5.797,0-10.54,4.743-10.54,10.54v171.511C191.904,397.361,196.646,402.103,202.443,402.103z"/>
			<rect x="208.925" y="209.514" style="fill-rule:evenodd;clip-rule:evenodd;fill:#00000F;" width="4.063" height="192.59"/>
			<path style="fill-rule:evenodd;clip-rule:evenodd;fill:#FFFFFF;" d="M228.861,233.131h80.505c0.907,0,1.65,0.743,1.65,1.651
				v29.714c0,0.908-0.743,1.65-1.65,1.65h-80.505c-0.908,0-1.651-0.742-1.651-1.65v-29.714
				C227.21,233.874,227.953,233.131,228.861,233.131z"/>
			<path style="fill-rule:evenodd;clip-rule:evenodd;fill:#004C84;" d="M228.036,282.463h82.156c0.454,0,0.825,0.371,0.825,0.824
				v2.16c0,0.453-0.371,0.824-0.825,0.824h-82.156c-0.454,0-0.826-0.371-0.826-0.824v-2.16
				C227.21,282.834,227.581,282.463,228.036,282.463z"/>
			<path style="fill-rule:evenodd;clip-rule:evenodd;fill:#004C84;" d="M228.036,291.478h82.156c0.454,0,0.825,0.371,0.825,0.824
				v2.16c0,0.453-0.371,0.824-0.825,0.824h-82.156c-0.454,0-0.826-0.371-0.826-0.824v-2.16
				C227.21,291.85,227.581,291.478,228.036,291.478z"/>
			<path style="fill-rule:evenodd;clip-rule:evenodd;fill:#004C84;" d="M228.036,300.492h82.156c0.454,0,0.825,0.373,0.825,0.826
				v2.158c0,0.455-0.371,0.826-0.825,0.826h-82.156c-0.454,0-0.826-0.371-0.826-0.826v-2.158
				C227.21,300.865,227.581,300.492,228.036,300.492z"/>
			<path style="fill-rule:evenodd;clip-rule:evenodd;fill:#004C84;" d="M228.036,328.365h82.156c0.454,0,0.825,0.371,0.825,0.826
				v2.158c0,0.455-0.371,0.826-0.825,0.826h-82.156c-0.454,0-0.826-0.371-0.826-0.826v-2.158
				C227.21,328.736,227.581,328.365,228.036,328.365z"/>
			<path style="fill-rule:evenodd;clip-rule:evenodd;fill:#004C84;" d="M228.036,337.381h82.156c0.454,0,0.825,0.371,0.825,0.826
				v2.158c0,0.455-0.371,0.826-0.825,0.826h-82.156c-0.454,0-0.826-0.371-0.826-0.826v-2.158
				C227.21,337.752,227.581,337.381,228.036,337.381z"/>
			<path style="fill-rule:evenodd;clip-rule:evenodd;fill:#004C84;" d="M228.036,346.397h82.156c0.454,0,0.825,0.371,0.825,0.826
				v2.158c0,0.453-0.371,0.826-0.825,0.826h-82.156c-0.454,0-0.826-0.373-0.826-0.826v-2.158
				C227.21,346.768,227.581,346.397,228.036,346.397z"/>
			<path style="fill-rule:evenodd;clip-rule:evenodd;fill:#004C84;" d="M306.572,382.74h-93.584v17.672v1.689
				c0.083,0.002,0.167,0.002,0.25,0.002h5.458h96.001c5.797,0,10.54-4.742,10.54-10.539V220.053c0-4.967-3.482-9.161-8.127-10.259
				v162.405C317.111,377.996,312.368,382.74,306.572,382.74z"/>
		</g>
		<g>
			<path style="fill-rule:evenodd;clip-rule:evenodd;fill:#080321;" d="M345.596,402.103H237.863c-3.946,0-7.533-1.613-10.132-4.213
				c-2.599-2.598-4.212-6.185-4.212-10.133c0-3.945,1.613-7.533,4.212-10.131c2.599-2.6,6.186-4.213,10.132-4.213h107.732
				c3.946,0,7.533,1.613,10.133,4.213c2.599,2.598,4.212,6.185,4.212,10.131c0,3.947-1.613,7.535-4.212,10.133
				C353.129,400.49,349.542,402.103,345.596,402.103z"/>
			<path style="fill-rule:evenodd;clip-rule:evenodd;fill:#101537;" d="M223.935,384.33c0.637-2.576,1.975-4.883,3.796-6.703
				c2.599-2.6,6.186-4.213,10.132-4.213h107.732c3.946,0,7.533,1.613,10.133,4.213c1.821,1.82,3.158,4.127,3.796,6.703
				c-0.638,2.576-1.975,4.883-3.796,6.703c-2.6,2.6-6.186,4.213-10.133,4.213H237.863c-3.946,0-7.533-1.613-10.132-4.213
				C225.91,389.213,224.572,386.906,223.935,384.33z"/>
			<path style="fill-rule:evenodd;clip-rule:evenodd;fill:#FFFFFF;" d="M427.628,401.043h-89.202c-3.655,0-6.977-1.494-9.384-3.9
				c-2.407-2.408-3.9-5.729-3.9-9.385c0-3.654,1.493-6.975,3.9-9.383c2.407-2.406,5.728-3.9,9.384-3.9h89.202V401.043z"/>
			<path style="fill-rule:evenodd;clip-rule:evenodd;fill:#3B405F;" d="M428.489,398.633c0.958,0,1.735,0.777,1.735,1.734
				c0,0.959-0.777,1.736-1.735,1.736h-90.738c-3.947,0-7.533-1.613-10.133-4.213c-2.6-2.598-4.213-6.185-4.213-10.133
				c0-3.945,1.613-7.533,4.213-10.131c2.6-2.6,6.185-4.213,10.133-4.213h90.738c0.958,0,1.735,0.777,1.735,1.736
				c0,0.957-0.777,1.734-1.735,1.734h-90.738c-2.988,0-5.707,1.225-7.679,3.195c-1.972,1.973-3.195,4.689-3.195,7.678
				c0,2.99,1.224,5.707,3.195,7.68c1.972,1.971,4.69,3.195,7.679,3.195H428.489z"/>
			<path style="fill-rule:evenodd;clip-rule:evenodd;fill:#101537;" d="M239.315,387.758c0-3.945,1.614-7.533,4.213-10.131
				c2.599-2.6,6.186-4.213,10.132-4.213h-10.531c-3.946,0-7.533,1.613-10.132,4.213c-2.6,2.598-4.213,6.185-4.213,10.131
				c0,3.947,1.613,7.535,4.213,10.133c2.599,2.6,6.185,4.213,10.132,4.213h10.531c-3.946,0-7.533-1.613-10.132-4.213
				C240.929,395.293,239.315,391.705,239.315,387.758L239.315,387.758z M313.364,387.758c0-3.945,1.613-7.533,4.212-10.131
				c2.6-2.6,6.186-4.213,10.133-4.213h-10.531c-3.947,0-7.533,1.613-10.133,4.213c-2.599,2.598-4.212,6.185-4.212,10.131
				c0,3.947,1.613,7.535,4.212,10.133c2.6,2.6,6.186,4.213,10.133,4.213h10.531c-3.946,0-7.533-1.613-10.132-4.213
				C314.977,395.293,313.364,391.705,313.364,387.758z"/>
			<path style="fill-rule:evenodd;clip-rule:evenodd;fill:#3B405F;" d="M239.315,387.758c0-3.945,1.614-7.533,4.213-10.131
				c2.599-2.6,6.186-4.213,10.132-4.213h-10.531c-3.946,0-7.533,1.613-10.132,4.213c-2.6,2.598-4.213,6.185-4.213,10.131
				c0,1.713,0.304,3.359,0.86,4.885c2.331,1.639,5.167,2.603,8.219,2.603h3.574C240.093,393.065,239.315,390.498,239.315,387.758
				L239.315,387.758z M315.486,395.246h-10.532c-1.344-2.182-2.121-4.748-2.121-7.488c0-3.945,1.613-7.533,4.212-10.131
				c2.6-2.6,6.186-4.213,10.133-4.213h10.531c-3.946,0-7.533,1.613-10.133,4.213c-2.599,2.598-4.212,6.185-4.212,10.131
				C313.364,390.498,314.142,393.065,315.486,395.246z"/>
			<path style="fill-rule:evenodd;clip-rule:evenodd;fill:#C0CDEA;" d="M427.628,394.775h-69.531h-8.86h-8.047
				c-2.462,0-4.698-1.006-6.319-2.627c-1.62-1.621-2.626-3.857-2.626-6.318c0-2.461,1.006-4.697,2.626-6.318
				c1.621-1.621,3.857-2.627,6.319-2.627h-3.438c-2.988,0-5.707,1.225-7.679,3.195c-1.972,1.973-3.195,4.689-3.195,7.678
				c0,2.895,1.147,5.533,3.009,7.488c0.062,0.064,0.124,0.127,0.187,0.191c1.972,1.971,4.69,3.195,7.679,3.195h17.178h72.699
				V394.775z"/>
		</g>
		<g>
			<path style="fill-rule:evenodd;clip-rule:evenodd;fill:#0069AF;" d="M337.053,373.414h86.465c4.381,0,8.363-1.791,11.248-4.676
				c2.886-2.887,4.677-6.867,4.677-11.248c0-4.381-1.791-8.363-4.677-11.248c-2.885-2.885-6.867-4.676-11.248-4.676h-86.465
				c-4.382,0-8.363,1.791-11.248,4.676c-2.886,2.885-4.676,6.867-4.676,11.248c0,4.381,1.79,8.361,4.676,11.248
				C328.689,371.623,332.671,373.414,337.053,373.414z"/>
			<path style="fill-rule:evenodd;clip-rule:evenodd;fill:#1874BA;" d="M438.979,353.684c-0.707-2.859-2.191-5.42-4.214-7.441
				c-2.885-2.885-6.867-4.676-11.248-4.676h-86.465c-4.382,0-8.363,1.791-11.248,4.676c-2.021,2.022-3.507,4.582-4.214,7.441
				c0.707,2.859,2.192,5.42,4.214,7.441c2.885,2.885,6.866,4.676,11.248,4.676h86.465c4.381,0,8.363-1.791,11.248-4.676
				C436.788,359.103,438.272,356.543,438.979,353.684z"/>
			<path style="fill-rule:evenodd;clip-rule:evenodd;fill:#FFFFFF;" d="M283.633,372.236h61.379c4.058,0,7.744-1.658,10.417-4.33
				c2.672-2.672,4.33-6.359,4.33-10.416c0-4.059-1.658-7.744-4.33-10.416c-2.673-2.672-6.359-4.332-10.417-4.332h-61.379V372.236z"
				/>
			<path style="fill-rule:evenodd;clip-rule:evenodd;fill:#004C84;" d="M282.677,369.56c-1.064,0-1.927,0.863-1.927,1.926
				c0,1.065,0.863,1.928,1.927,1.928h63.084c4.382,0,8.363-1.791,11.248-4.676c2.886-2.887,4.676-6.867,4.676-11.248
				c0-4.381-1.79-8.363-4.676-11.248c-2.885-2.885-6.866-4.676-11.248-4.676h-63.084c-1.064,0-1.927,0.861-1.927,1.926
				c0,1.064,0.863,1.928,1.927,1.928h63.084c3.317,0,6.335,1.357,8.523,3.547c2.189,2.188,3.548,5.205,3.548,8.523
				c0,3.316-1.358,6.334-3.548,8.523c-2.188,2.188-5.206,3.547-8.523,3.547H282.677z"/>
			<path style="fill-rule:evenodd;clip-rule:evenodd;fill:#FCE4D6;" d="M283.633,365.279h39.543h9.835h8.934
				c2.731,0,5.215-1.117,7.014-2.916c1.8-1.799,2.916-4.281,2.916-7.014c0-2.732-1.116-5.215-2.916-7.014
				c-1.799-1.801-4.282-2.916-7.014-2.916h3.816c3.317,0,6.335,1.357,8.523,3.547c2.189,2.188,3.548,5.205,3.548,8.523
				c0,3.211-1.273,6.141-3.341,8.311c-0.068,0.072-0.137,0.143-0.207,0.213c-2.188,2.188-5.206,3.547-8.523,3.547h-19.069h-43.059
				V365.279z"/>
			<path style="fill-rule:evenodd;clip-rule:evenodd;fill:#003760;" d="M421.905,357.49c0-4.381-1.79-8.363-4.676-11.248
				c-2.885-2.885-6.867-4.676-11.248-4.676h11.691c4.381,0,8.362,1.791,11.248,4.676c2.885,2.885,4.676,6.867,4.676,11.248
				c0,4.381-1.791,8.361-4.676,11.248c-2.886,2.885-6.867,4.676-11.248,4.676h-11.691c4.382,0,8.363-1.791,11.248-4.676
				C420.115,365.852,421.905,361.871,421.905,357.49L421.905,357.49z M368.482,357.49c0-4.381-1.791-8.363-4.677-11.248
				c-2.885-2.885-6.866-4.676-11.248-4.676h11.691c4.381,0,8.362,1.791,11.248,4.676c2.885,2.885,4.676,6.867,4.676,11.248
				c0,4.381-1.791,8.361-4.676,11.248c-2.886,2.885-6.867,4.676-11.248,4.676h-11.691c4.382,0,8.363-1.791,11.248-4.676
				C366.691,365.852,368.482,361.871,368.482,357.49L368.482,357.49z M386.29,357.49c0,4.381-1.791,8.361-4.676,11.248
				c-2.886,2.885-6.867,4.676-11.248,4.676h11.69c4.381,0,8.362-1.791,11.248-4.676c2.886-2.887,4.676-6.867,4.676-11.248
				c0-4.381-1.79-8.363-4.676-11.248c-2.886-2.885-6.867-4.676-11.248-4.676h-11.69c4.381,0,8.362,1.791,11.248,4.676
				C384.499,349.127,386.29,353.109,386.29,357.49L386.29,357.49z M404.098,357.49c0,4.381-1.791,8.361-4.676,11.248
				c-2.886,2.885-6.867,4.676-11.248,4.676h11.69c4.382,0,8.363-1.791,11.248-4.676c2.886-2.887,4.676-6.867,4.676-11.248
				c0-4.381-1.79-8.363-4.676-11.248c-2.885-2.885-6.866-4.676-11.248-4.676h-11.69c4.381,0,8.363,1.791,11.248,4.676
				C402.307,349.127,404.098,353.109,404.098,357.49z"/>
			<path style="fill-rule:evenodd;clip-rule:evenodd;fill:#002846;" d="M432.642,362.91c-0.806,2.211-2.088,4.195-3.721,5.828
				c-2.886,2.885-6.867,4.676-11.248,4.676h-11.691c4.382,0,8.363-1.791,11.248-4.676c0.883-0.883,1.663-1.869,2.321-2.938h3.967
				C426.905,365.801,430.054,364.73,432.642,362.91L432.642,362.91z M413.434,365.801h-11.691c-0.657,1.068-1.438,2.055-2.32,2.938
				c-2.886,2.885-6.867,4.676-11.248,4.676h11.69c4.382,0,8.363-1.791,11.248-4.676
				C411.995,367.855,412.775,366.869,413.434,365.801L413.434,365.801z M395.625,365.801c-0.657,1.068-1.438,2.055-2.32,2.938
				c-2.886,2.885-6.867,4.676-11.248,4.676h-11.69c4.381,0,8.362-1.791,11.248-4.676c0.883-0.883,1.662-1.869,2.32-2.938H395.625
				L395.625,365.801z M377.817,365.801h-11.69c-0.658,1.068-1.439,2.055-2.321,2.938c-2.885,2.885-6.866,4.676-11.248,4.676h11.691
				c4.381,0,8.362-1.791,11.248-4.676C376.38,367.855,377.159,366.869,377.817,365.801z"/>
			<path style="fill-rule:evenodd;clip-rule:evenodd;fill:#D64C47;" d="M290.364,358.129l5.206,4.078
				c0.112,0.088,0.256,0.103,0.385,0.039c0.129-0.063,0.205-0.184,0.205-0.326v-16.137c0-0.199-0.164-0.363-0.365-0.363h-10.862
				c-0.201,0-0.365,0.164-0.365,0.363v16.137c0,0.143,0.076,0.264,0.205,0.326c0.129,0.064,0.272,0.049,0.385-0.039L290.364,358.129
				z"/>
		</g>
		<g>
			<path style="fill-rule:evenodd;clip-rule:evenodd;fill:#E13C83;" d="M363.23,341.566h-69.652c-3.529,0-6.736-1.443-9.061-3.768
				c-2.324-2.324-3.768-5.531-3.768-9.06s1.443-6.736,3.768-9.061c2.324-2.324,5.531-3.768,9.061-3.768h69.652
				c3.529,0,6.736,1.443,9.06,3.768c2.324,2.324,3.767,5.531,3.767,9.061s-1.442,6.736-3.767,9.06
				C369.967,340.123,366.76,341.566,363.23,341.566z"/>
			<path style="fill-rule:evenodd;clip-rule:evenodd;fill:#E94D90;" d="M281.123,325.672c0.569-2.303,1.766-4.365,3.395-5.994
				c2.324-2.324,5.531-3.768,9.061-3.768h69.652c3.529,0,6.736,1.443,9.06,3.768c1.629,1.629,2.824,3.691,3.395,5.994
				c-0.57,2.303-1.766,4.365-3.395,5.994c-2.324,2.324-5.531,3.768-9.06,3.768h-69.652c-3.529,0-6.736-1.443-9.061-3.768
				C282.889,330.037,281.692,327.975,281.123,325.672z"/>
			<path style="fill-rule:evenodd;clip-rule:evenodd;fill:#FFFFFF;" d="M406.263,340.617h-49.444c-3.268,0-6.238-1.336-8.391-3.488
				c-2.152-2.152-3.488-5.123-3.488-8.391c0-3.268,1.336-6.238,3.488-8.391c2.152-2.152,5.123-3.488,8.391-3.488h49.444V340.617z"/>
			<path style="fill-rule:evenodd;clip-rule:evenodd;fill:#B83470;" d="M407.032,338.461c0.857,0,1.553,0.695,1.553,1.553
				s-0.695,1.553-1.553,1.553h-50.817c-3.528,0-6.736-1.443-9.06-3.768c-2.324-2.324-3.767-5.531-3.767-9.06
				s1.442-6.736,3.767-9.061c2.324-2.324,5.532-3.768,9.06-3.768h50.817c0.857,0,1.553,0.695,1.553,1.553
				c0,0.857-0.695,1.551-1.553,1.551h-50.817c-2.672,0-5.102,1.096-6.866,2.859c-1.763,1.762-2.857,4.193-2.857,6.865
				c0,2.672,1.095,5.103,2.857,6.865c1.764,1.764,4.194,2.857,6.866,2.857H407.032z"/>
			<path style="fill-rule:evenodd;clip-rule:evenodd;fill:#E94D90;" d="M294.876,328.738c0-3.529,1.443-6.736,3.768-9.061
				c2.324-2.324,5.531-3.768,9.061-3.768h-9.417c-3.529,0-6.737,1.443-9.06,3.768c-2.325,2.324-3.768,5.531-3.768,9.061
				s1.442,6.736,3.768,9.06c2.323,2.324,5.531,3.768,9.06,3.768h9.417c-3.529,0-6.736-1.443-9.061-3.768
				C296.319,335.475,294.876,332.268,294.876,328.738L294.876,328.738z M334.408,328.738c0-3.529,1.442-6.736,3.767-9.061
				c2.324-2.324,5.531-3.768,9.061-3.768h-9.417c-3.529,0-6.736,1.443-9.062,3.768c-2.323,2.324-3.767,5.531-3.767,9.061
				s1.443,6.736,3.767,9.06c2.325,2.324,5.532,3.768,9.062,3.768h9.417c-3.529,0-6.736-1.443-9.061-3.768
				C335.851,335.475,334.408,332.268,334.408,328.738z"/>
			<path style="fill-rule:evenodd;clip-rule:evenodd;fill:#EC678E;" d="M294.876,328.738c0-3.529,1.443-6.736,3.768-9.061
				c2.324-2.324,5.531-3.768,9.061-3.768h-9.417c-3.529,0-6.737,1.443-9.06,3.768c-2.325,2.324-3.768,5.531-3.768,9.061
				c0,1.531,0.272,3.002,0.769,4.367c2.085,1.465,4.621,2.328,7.35,2.328h3.196C295.572,333.482,294.876,331.188,294.876,328.738
				L294.876,328.738z M336.306,335.434h-9.418c-1.202-1.951-1.897-4.246-1.897-6.695c0-3.529,1.443-6.736,3.767-9.061
				c2.325-2.324,5.532-3.768,9.062-3.768h9.417c-3.529,0-6.736,1.443-9.061,3.768c-2.324,2.324-3.767,5.531-3.767,9.061
				C334.408,331.188,335.103,333.482,336.306,335.434z"/>
			<path style="fill-rule:evenodd;clip-rule:evenodd;fill:#FCE4D6;" d="M406.263,335.014h-31.854h-7.924h-7.195
				c-2.201,0-4.201-0.9-5.65-2.35c-1.449-1.449-2.349-3.449-2.349-5.65c0-2.201,0.899-4.201,2.349-5.65
				c1.449-1.449,3.449-2.35,5.65-2.35h-3.075c-2.672,0-5.102,1.096-6.866,2.859c-1.763,1.762-2.857,4.193-2.857,6.865
				c0,2.586,1.026,4.947,2.691,6.695c0.055,0.057,0.11,0.113,0.166,0.17c1.764,1.764,4.194,2.857,6.866,2.857h15.361h34.686V335.014
				z"/>
		</g>
		<g>
			<path style="fill-rule:evenodd;clip-rule:evenodd;fill:#9FB2D9;" d="M185.215,402.103c0,0,52.802,0,60.296,0
				c7.493,0,13.244-4.879,8.538-15.857c-4.705-10.978-54.892-139.76-54.892-139.76v-63.029l-2.788-3.749h-22.308l-2.788,3.749
				v63.029c0,0-50.187,128.781-54.892,139.76c-4.705,10.979,1.046,15.857,8.539,15.857
				C132.414,402.103,185.215,402.103,185.215,402.103z"/>
			<path style="fill-rule:evenodd;clip-rule:evenodd;fill:#9FB2D9;" d="M167.153,175.809h36.125c3.829,0,6.962,3.133,6.962,6.962
				l0,0c0,3.83-3.133,6.963-6.962,6.963h-36.125c-3.83,0-6.963-3.133-6.963-6.963l0,0
				C160.19,178.941,163.323,175.809,167.153,175.809z"/>
			<path style="fill-rule:evenodd;clip-rule:evenodd;fill:#F0F4FB;" d="M179.699,402.103c0,0,52.801,0,60.295,0
				c7.493,0,13.244-4.879,8.539-15.857c-4.706-10.978-54.893-139.76-54.893-139.76v-63.029l-2.788-3.749h-22.308l-2.788,3.749
				v63.029c0,0-50.187,128.781-54.892,139.76c-4.705,10.979,1.045,15.857,8.539,15.857
				C126.897,402.103,179.699,402.103,179.699,402.103z"/>
			<path style="fill-rule:evenodd;clip-rule:evenodd;fill:#FFFFFF;" d="M179.699,402.103h0.038h0.113h0.186h0.256h0.077h0.249h0.392
				h0.406h0.049h0.517h0.516h0.061h0.633h0.419h0.269h0.741h0.134h0.657h0.515h0.325h0.873h0.013h0.929h0.279h0.691h0.551h0.459
				h0.802h0.244h1.034h0.047h1.113h0.131h1.013h0.292h0.88h0.435h0.763h0.559h0.662h0.666h0.576h0.755h0.506h0.826h0.453h0.878
				h0.414h0.914h0.391h0.93h0.384h0.929h0.393h0.91h0.417h0.874h0.458h0.818h0.514h0.746h0.585h0.655h0.672h0.546h0.775h0.419h0.895
				h0.274h1.028h0.112h1.11h0.069h1.009h0.268h0.775h0.483h0.521h0.719h0.247h0.924h0.047h0.833h0.361h0.473h0.696h0.09h0.735h0.315
				h0.367h0.628h0.116h0.454h0.51h0.114h0.335h0.384c7.494,0,13.244-4.879,8.539-15.857c-4.705-10.978-54.892-139.76-54.892-139.76
				v-45.662h-18.207v45.662c0,0-50.187,128.781-54.892,139.76c-4.705,10.979,1.045,15.857,8.539,15.857h0.384h0.335h0.114h0.51
				h0.454h0.116h0.628h0.367h0.315h0.735h0.09h0.696h0.473h0.361h0.834h0.047h0.924h0.247h0.719h0.521h0.484h0.775h0.268h1.009
				h0.069h1.11h0.112h1.029h0.274h0.895h0.419h0.775h0.546h0.672h0.655h0.585h0.746h0.514h0.818h0.458h0.873h0.418h0.91h0.393h0.929
				h0.384h0.93h0.391h0.914h0.413h0.879h0.452h0.826h0.506h0.755h0.576h0.666h0.662h0.559h0.763h0.435h0.88h0.292h1.013h0.131h1.113
				h0.047h1.034h0.244h0.802h0.458h0.551h0.691h0.279h0.929h0.013h0.873h0.325h0.515h0.657h0.134h0.741h0.269h0.419h0.633h0.061
				h0.516h0.517h0.049h0.406h0.391h0.249h0.076h0.257h0.186h0.113h0.038h0.039h0.113h0.186h0.001h0.256h0.326h0.389h0.003h0.456
				h0.471h0.046h0.576h0.264h0.37h0.47h0.219h0.573h0.168h0.573h0.219h0.47h0.37h0.264h0.576h0.045h0.472h0.455h0.003h0.389h0.326
				h0.256h0.001h0.186h0.113H179.699z"/>
			<path style="fill-rule:evenodd;clip-rule:evenodd;fill:#E13C83;" d="M155.747,285.074c-4.355,11.148-8.714,22.295-13.076,33.44
				c-5.849,14.941-11.702,29.879-17.588,44.805c-2.12,5.375-4.243,10.75-6.385,16.117c-1.151,2.885-2.29,5.807-3.514,8.662
				c-0.824,1.924-2.264,6.047-0.46,7.885c1.106,1.125,3.185,1.422,4.68,1.422c20.098,0,40.196,0,60.295,0
				c20.098,0,40.197,0,60.295,0c1.495,0,3.573-0.297,4.68-1.422c1.805-1.838,0.364-5.961-0.46-7.885
				c-1.224-2.855-2.363-5.777-3.514-8.662c-2.142-5.367-4.265-10.742-6.385-16.117c-5.886-14.926-11.739-29.863-17.587-44.805
				c-4.362-11.145-8.722-22.291-13.077-33.44H155.747z"/>
			<path style="fill-rule:evenodd;clip-rule:evenodd;fill:#E94D90;" d="M155.747,285.074c-4.355,11.148-8.714,22.295-13.076,33.44
				c-5.849,14.941-11.702,29.879-17.588,44.805c-2.12,5.375-4.243,10.75-6.385,16.117c-0.704,1.764-1.403,3.541-2.12,5.309h45.939
				c20.099,0,40.197,0,60.295,0c1.496,0,3.574-0.295,4.68-1.422c1.805-1.838,0.365-5.961-0.46-7.885
				c-1.224-2.855-2.362-5.775-3.514-8.662c-2.142-5.367-4.265-10.742-6.385-16.117c-5.886-14.926-11.739-29.863-17.587-44.805
				c-2.711-6.926-5.421-13.851-8.129-20.779H155.747z"/>
			<path style="fill-rule:evenodd;clip-rule:evenodd;fill:#FFFFFF;" d="M161.637,175.809h36.124c3.83,0,6.963,3.133,6.963,6.962l0,0
				c0,3.83-3.133,6.963-6.963,6.963h-36.124c-3.83,0-6.963-3.133-6.963-6.963l0,0C154.674,178.941,157.807,175.809,161.637,175.809z
				"/>
			<path style="fill-rule:evenodd;clip-rule:evenodd;fill:#B83470;" d="M157.104,283.717h45.19c0.746,0,1.357,0.611,1.357,1.357l0,0
				c0,0.746-0.61,1.357-1.357,1.357h-45.19c-0.747,0-1.357-0.611-1.357-1.357l0,0C155.747,284.328,156.357,283.717,157.104,283.717z
				"/>
		</g>
		<g>
			<path style="fill-rule:evenodd;clip-rule:evenodd;fill:#F6CBCF;" d="M272.369,396.262c0.014,0.326-0.086,1.766,0.21,2.367
				c0.074,0.152-0.066,0.32-0.129,0.453c-0.196,0.422-0.806,0.984-2.773,1.248c-1.968,0.264-4.162,0.027-5.303-0.137
				c-1.141-0.164-0.459-0.711,0.072-0.938c0.53-0.227,4.571-1.475,5.163-2.039c0.592-0.564,0.183-1.557,0.273-1.717
				C269.973,395.34,272.103,395.379,272.369,396.262z"/>
			<path style="fill-rule:evenodd;clip-rule:evenodd;fill:#00061A;" d="M270.771,349.398l-0.603,0.852
				c0,0-1.626,15.326-1.614,20.135c0.012,4.811,0.913,5.57,0.882,10.42c-0.03,4.852,0.33,14.186,0.272,15.344
				c-0.059,1.16,2.101,0.943,2.729,0.455c0.629-0.488,1.488-16.711,1.36-19.135c-0.129-2.422,0.376-5.799,0.947-8.029
				c0.572-2.229,4.071-14.574,4.119-17.807C278.911,348.398,270.771,349.398,270.771,349.398z"/>
			<path style="fill-rule:evenodd;clip-rule:evenodd;fill:#F6CBCF;" d="M278.193,372.525c0,0,0.255,0.152,0.841,0.129
				c0.402-0.018,0.823-0.047,1.189-0.01c0.167,0.018,0.322,0.049,0.458,0.103c0.433,0.174,1.027,0.75,1.399,2.701
				c0.372,1.951,0.255,4.154,0.154,5.303c-0.101,1.148-0.684,0.498-0.94-0.022c-0.255-0.518-1.57-4.043-2.575-4.971
				c-1.006-0.928-1.148-0.818-1.313-0.9C277.242,374.779,277.326,372.84,278.193,372.525z"/>
			<path style="fill-rule:evenodd;clip-rule:evenodd;fill:#1C2B3F;" d="M279.565,346.934c0.651,0.492,3.4,2.203,3.468,2.818
				c1.372,12.56-15.338,13.295-17.741,16.758c-0.406,0.586,12.944,4.742,13.331,5.059c0.386,0.314-0.068,3.348-0.554,3.678
				c-0.484,0.332-16.676-3.561-20.337-5.861c0,0-2.313-1.814-0.022-5.725c2.29-3.908,12.735-10.346,13.449-11.162
				c0.714-0.816,1.877-1.818,1.446-3.252C272.174,347.81,279.565,346.934,279.565,346.934z"/>
			<path style="fill-rule:evenodd;clip-rule:evenodd;fill:#F6CBCF;" d="M262.708,328.137l-0.542-0.185c0,0-0.284-0.766-0.635-1.096
				c-0.35-0.328-0.964-0.863-1.002-1.602c-0.039-0.738,2.742-1.098,2.741-0.941c0,0.156,1.145,1.299,1.03,1.764
				c-0.114,0.467-0.504,1.225-0.504,1.225L262.708,328.137z"/>
			<path style="fill-rule:evenodd;clip-rule:evenodd;fill:#F18A00;" d="M272.274,328.225c0,0-3.597,7.996-4.291,8.814
				c-0.695,0.82-3.56-8.123-4.186-9.738c0,0-1.259,0.047-1.668,0.439c0,0,1.863,10.734,2.77,12.895
				c0.906,2.162,2.969,2.486,4.857,1.719c1.889-0.766,6.848-9.189,7.885-10.74C278.677,330.063,276.098,324.578,272.274,328.225z"/>
			<path style="fill-rule:evenodd;clip-rule:evenodd;fill:#FCC100;" d="M274.592,321.127c-1.194,0.813-3.282,1.551-3.953,4.92
				c-1.229,6.176,1.083,16.035-1.184,24.357c-0.123,0.451,0.231,0.359,0.398,0.322c0.166-0.037,3.704-0.021,7.188,0.23
				c3.483,0.25,5.968-0.68,6.779-1.314c0,0,0.416-0.447,0.3-0.861c-1.426-5.105-1.614-10.207-1.071-15.404
				C283.72,326.957,282.152,313.486,274.592,321.127z"/>
			<path style="fill-rule:evenodd;clip-rule:evenodd;fill:#F8AD00;" d="M274.171,324.652c0,0-2.046,9.77-2.618,10.85
				c-0.572,1.082-5.941-8.162-7.032-9.805c0,0-1.389,0.359-1.748,0.895c0,0,4.693,11.48,6.23,13.662
				c1.536,2.182,3.907,2.039,5.819,0.725c1.913-1.314,5.37-11.891,6.143-13.869C281.738,325.133,277.532,319.666,274.171,324.652z"
				/>
			<path style="fill-rule:evenodd;clip-rule:evenodd;fill:#00061A;" d="M258.785,316.26c0,0-0.451,0.113-0.468,0.428
				c-0.018,0.315,0.907,7.514,1.033,7.799c0.127,0.287,0.246,0.742,3.261,0.461c0,0,0.526-0.092,0.646-0.361
				c0.118-0.271-0.51-6.707-0.537-7.455c-0.026-0.75-0.492-0.902-0.923-0.947C261.366,316.141,258.785,316.26,258.785,316.26z"/>
			<path style="fill-rule:evenodd;clip-rule:evenodd;fill:#F6CBCF;" d="M262.896,326.961c0,0-0.44-0.432-1.449-0.996
				c-1.01-0.564-1.868-1.049-2-1.416c-0.133-0.367-0.026-0.727,0.168-0.842c0.194-0.115,0.702,0.039,0.918-0.029
				c0.215-0.07-0.333-0.387-0.69-0.463c-0.356-0.074-0.785-0.078-0.938-0.174c-0.152-0.096-0.125-0.297-0.092-0.359
				s0.33-0.07,0.721-0.094c0.39-0.023,0.621-0.051,0.976,0.08c0.354,0.131,0.729,0.184,0.774,0.172
				c0.047-0.014,0.141-0.305,0.013-0.545c-0.127-0.242-0.632-0.674-0.803-0.799c-0.172-0.127-0.746-0.084-1.011-0.184
				c-0.264-0.1-0.24-0.42,0.079-0.477c0.319-0.057,0.681-0.021,1.143,0.004c0.463,0.023,0.65,0.307,1.237,0.699
				c0.587,0.393,1.653,1.125,1.952,1.889c0.3,0.764,0.368,1.756,0.627,2.27C264.778,326.209,264.189,326.809,262.896,326.961z"/>
			<g>
				<path style="fill-rule:evenodd;clip-rule:evenodd;fill:#E13C83;" d="M279.384,377.387c0.598,0.541,2.039,2.83,2.026,4.469
					c-0.013,1.639,1.343,1.084,1.343,1.084s0.594,0.342,0.872-0.024c0.277-0.367,0.876-3.74,0.628-5.408
					c-0.249-1.668-0.609-3.598-0.328-4.982c0.282-1.385-1.477-1.211-1.887-0.885c0,0-1.801-0.23-2.313,0.01
					c-0.512,0.24-0.422,0.982-0.002,1.441c0.42,0.457,0.347,1.754,0.026,2.221C278.661,375.264,278.597,376.676,279.384,377.387z"/>
				<path style="fill-rule:evenodd;clip-rule:evenodd;fill:#FFFFFF;" d="M281.415,371.578c-0.272-0.021-0.599-0.041-0.898-0.037
					c-0.175,0.774-0.238,1.951,0.352,3.344c1.065,2.512,0.688,3.092,0.688,3.092l0.785,1.09c0,0,0.551-1.535-0.483-4.082
					C281.155,373.258,281.149,372.291,281.415,371.578z"/>
				<path style="fill-rule:evenodd;clip-rule:evenodd;fill:#FFFFFF;" d="M282.753,382.94c0,0,0.594,0.342,0.872-0.024
					c0.277-0.367,0.876-3.74,0.628-5.408c-0.249-1.668-0.609-3.598-0.328-4.982c0.282-1.385-1.477-1.211-1.887-0.885
					c-0.011,2.824,1.136,3.44,1.313,6.914C283.526,382.029,282.753,382.94,282.753,382.94z"/>
			</g>
			<g>
				<path style="fill-rule:evenodd;clip-rule:evenodd;fill:#E13C83;" d="M267.659,397.367c-0.53,0.586-2.773,1.998-4.38,1.986
					c-1.605-0.012-1.063,1.315-1.063,1.315s-0.334,0.584,0.024,0.855c0.358,0.273,3.665,0.859,5.3,0.615
					c1.635-0.242,3.526-0.598,4.883-0.32c1.357,0.275,1.187-1.447,0.867-1.85c0,0,0.226-1.764-0.01-2.266
					c-0.234-0.502-0.963-0.414-1.412-0.002c-0.448,0.41-1.719,0.34-2.177,0.025C269.74,396.66,268.356,396.596,267.659,397.367z"/>
				<path style="fill-rule:evenodd;clip-rule:evenodd;fill:#FFFFFF;" d="M273.352,399.359c0.021-0.268,0.039-0.588,0.036-0.883
					c-0.757-0.17-1.912-0.232-3.277,0.346c-2.46,1.043-3.029,0.674-3.029,0.674l-1.067,0.77c0,0,1.504,0.539,4-0.475
					C271.707,399.103,272.654,399.098,273.352,399.359z"/>
				<path style="fill-rule:evenodd;clip-rule:evenodd;fill:#FFFFFF;" d="M262.217,400.668c0,0-0.334,0.584,0.024,0.855
					c0.358,0.273,3.665,0.859,5.3,0.615c1.635-0.242,3.526-0.598,4.883-0.32c1.357,0.275,1.187-1.447,0.867-1.85
					c-2.768-0.01-3.372,1.113-6.776,1.285C263.11,401.428,262.217,400.668,262.217,400.668z"/>
			</g>
			<path style="fill-rule:evenodd;clip-rule:evenodd;fill:#F6CBCF;" d="M267.559,309.258c0,0-0.249,2.564-0.256,3.041
				c-0.008,0.477,0.351,0.858,0.413,1.527c0.064,0.67-0.155,2.02-0.146,2.367c0.011,0.346,0.745,0.26,0.925,0.471
				c0.18,0.211,0.113,0.527,0.194,0.721c0.082,0.191,0.319,0.164,0.367,0.293c0.047,0.127-0.012,0.336,0.034,0.453
				c0.048,0.117,0.392,0.146,0.523,0.564c0.132,0.42,0.457,1.168,1.959,0.635c1.501-0.531,2.692-2.734,2.941-3.869
				c0.248-1.135,0.147-3.061,0.11-3.559c-0.036-0.498-0.685-3.361-1.128-3.65C273.055,307.961,268.228,307.498,267.559,309.258z"/>
			<path style="fill-rule:evenodd;clip-rule:evenodd;fill:#F6CBCF;" d="M272.692,317.775l-0.297,1.086
				c2.017-0.803,1.902,1.397,1.982,2.494c0.036,0.49,4.241-0.816,4.855-2.228c-0.686-0.932-0.468-1.057-1.59-3.584
				c-0.346-0.777-1.141-1.373-1.33-2.098c0,0,0.544-2.877,0.116-3.479c-0.429-0.603-1.994-0.211-2.086,0.539
				C274.252,311.256,272.692,317.775,272.692,317.775z"/>
			<path style="fill-rule:evenodd;clip-rule:evenodd;fill:#00061A;" d="M267.525,309.602c0,0-1.463-0.609-1.647-2.402
				c-0.183-1.793,0.562-3.723,3.06-4.275c2.498-0.551,3.733,1.623,6.248,1.635c2.515,0.012,3.397,0.506,3.053,2.791
				c0,0,1.603,0.668,1.007,2.484c-0.597,1.818-1.86,4.695-1.51,5.813c0,0-1.34-1.066-1.553-2.383c0,0,0.161-2.227-0.463-2.445
				c-0.625-0.221-1.119,0.293-1.141,1.377c-0.022,1.086-0.087,1.455-0.287,1.635c-0.201,0.18-0.347,0.184-0.432,0.051
				c-0.086-0.133,0.284-1.543-0.477-2.344c-0.761-0.801-1.465-1.148-1.614-1.793C271.62,309.098,269.372,310.053,267.525,309.602z"
				/>
		</g>
		<path style="fill-rule:evenodd;clip-rule:evenodd;fill:#FAFBFD;" d="M105.668,305.84c19.183,0,34.83-15.646,34.83-34.828
			c0-19.184-15.646-34.83-34.83-34.83s-34.829,15.646-34.829,34.83C70.839,290.193,86.485,305.84,105.668,305.84z"/>
		<rect x="95.438" y="199.175" style="fill-rule:evenodd;clip-rule:evenodd;fill:#FAFBFD;" width="20.462" height="44.625"/>
		<path style="fill-rule:evenodd;clip-rule:evenodd;fill:#FAFBFD;" d="M93.532,194.767h24.273c2.425,0,4.408,1.983,4.408,4.408v0
			c0,2.424-1.983,4.408-4.408,4.408H93.532c-2.424,0-4.408-1.983-4.408-4.408v0C89.124,196.751,91.107,194.767,93.532,194.767z"/>
		<path style="fill-rule:evenodd;clip-rule:evenodd;fill:#E94D90;" d="M115.895,213.478h106.224c0.536,0,0.974,0.439,0.974,0.975
			v0.899c0,0.536-0.438,0.975-0.974,0.975H115.895c-0.536,0-0.974-0.439-0.974-0.975v-0.899
			C114.921,213.917,115.359,213.478,115.895,213.478z"/>
		<path style="fill-rule:evenodd;clip-rule:evenodd;fill:#1874BA;" d="M132.115,258.672c1.752,3.748,2.732,7.93,2.732,12.34
			c0,16.115-13.064,29.178-29.179,29.178c-16.115,0-29.179-13.063-29.179-29.178c0-4.41,0.98-8.592,2.732-12.34H132.115z"/>
		<path style="fill-rule:evenodd;clip-rule:evenodd;fill:#101537;" d="M96.402,210.39h18.532c1.699,0,3.088,1.39,3.088,3.089v2.847
			c0,1.699-1.39,3.089-3.088,3.089H96.402c-1.699,0-3.088-1.39-3.088-3.089v-2.847C93.314,211.779,94.704,210.39,96.402,210.39z"/>
		<path style="fill-rule:evenodd;clip-rule:evenodd;fill:#101537;" d="M163.398,210.39h31.596c1.699,0,3.089,1.39,3.089,3.089v2.847
			c0,1.699-1.39,3.089-3.089,3.089h-31.596c-1.698,0-3.088-1.39-3.088-3.089v-2.847C160.31,211.779,161.7,210.39,163.398,210.39z"/>
		<path style="fill-rule:evenodd;clip-rule:evenodd;fill:#00000F;" d="M225.473,202.262v25.28c0,0.896-0.733,1.628-1.629,1.628
			h-1.501c-0.896,0-1.629-0.732-1.629-1.628v-25.28c0-0.896,0.733-1.628,1.629-1.628h1.501
			C224.74,200.633,225.473,201.366,225.473,202.262z"/>
		<path style="fill-rule:evenodd;clip-rule:evenodd;fill:#004C84;" d="M124.466,258.672c0.925,2.842,1.426,5.877,1.426,9.029
			c0,16.115-13.064,29.18-29.179,29.18c-1.881,0-3.72-0.178-5.502-0.518c4.262,2.435,9.197,3.826,14.457,3.826
			c16.115,0,29.179-13.063,29.179-29.178c0-4.41-0.98-8.592-2.732-12.34H124.466z"/>
		<path style="fill-rule:evenodd;clip-rule:evenodd;fill:#004C84;" d="M106.716,297.412c4.235,0,7.689-3.453,7.689-7.689
			c0-4.234-3.454-7.689-7.689-7.689c-4.236,0-7.69,3.455-7.69,7.689C99.026,293.959,102.48,297.412,106.716,297.412z"/>
		<path style="fill-rule:evenodd;clip-rule:evenodd;fill:#004C84;" d="M116.45,285.051c1.983,0,3.602-1.619,3.602-3.602
			c0-1.984-1.618-3.602-3.602-3.602s-3.602,1.617-3.602,3.602C112.849,283.432,114.467,285.051,116.45,285.051z"/>
		<path style="fill-rule:evenodd;clip-rule:evenodd;fill:#004C84;" d="M109.782,280.475c1.207,0,2.19-0.982,2.19-2.189
			c0-1.207-0.984-2.189-2.19-2.189c-1.206,0-2.19,0.982-2.19,2.189C107.592,279.492,108.576,280.475,109.782,280.475z"/>
		<path style="fill-rule:evenodd;clip-rule:evenodd;fill:#004C84;" d="M95.382,295.758c0.834,0,1.515-0.68,1.515-1.514
			c0-0.836-0.681-1.516-1.515-1.516c-0.834,0-1.515,0.68-1.515,1.516C93.867,295.078,94.547,295.758,95.382,295.758z"/>
		<circle style="fill-rule:evenodd;clip-rule:evenodd;fill:#004C84;" cx="117.346" cy="288.334" r="2.115"/>
		<path style="fill-rule:evenodd;clip-rule:evenodd;fill:#004C84;" d="M88.429,274.344c1.762,0,3.199-1.438,3.199-3.201
			c0-1.762-1.437-3.199-3.199-3.199s-3.199,1.438-3.199,3.199C85.23,272.906,86.667,274.344,88.429,274.344z"/>
		<circle style="fill-rule:evenodd;clip-rule:evenodd;fill:#004C84;" cx="82.701" cy="270.088" r="1.141"/>
		<path style="fill-rule:evenodd;clip-rule:evenodd;fill:#E13C83;" d="M213.883,389.73c5.349,0,9.712-4.363,9.712-9.711
			c0-5.35-4.363-9.713-9.712-9.713c-5.349,0-9.712,4.363-9.712,9.713C204.171,385.367,208.534,389.73,213.883,389.73z"/>
		<path style="fill-rule:evenodd;clip-rule:evenodd;fill:#E13C83;" d="M226.176,374.117c2.505,0,4.549-2.043,4.549-4.547
			c0-2.506-2.044-4.549-4.549-4.549c-2.505,0-4.548,2.043-4.548,4.549C221.628,372.074,223.671,374.117,226.176,374.117z"/>
		<circle style="fill-rule:evenodd;clip-rule:evenodd;fill:#E13C83;" cx="217.755" cy="365.574" r="2.766"/>
		<path style="fill-rule:evenodd;clip-rule:evenodd;fill:#E13C83;" d="M199.568,387.641c1.053,0,1.913-0.859,1.913-1.912
			c0-1.055-0.86-1.914-1.913-1.914c-1.054,0-1.913,0.859-1.913,1.914C197.655,386.781,198.515,387.641,199.568,387.641z"/>
		<path style="fill-rule:evenodd;clip-rule:evenodd;fill:#E13C83;" d="M227.308,380.938c1.471,0,2.672-1.201,2.672-2.672
			c0-1.473-1.201-2.672-2.672-2.672c-1.472,0-2.672,1.199-2.672,2.672C224.635,379.736,225.836,380.938,227.308,380.938z"/>
		<path style="fill-rule:evenodd;clip-rule:evenodd;fill:#E13C83;" d="M182.44,324.83c3.596,0,6.53-2.934,6.53-6.531
			c0-3.596-2.934-6.529-6.53-6.529c-3.597,0-6.531,2.934-6.531,6.529C175.909,321.897,178.843,324.83,182.44,324.83z"/>
		<path style="fill-rule:evenodd;clip-rule:evenodd;fill:#E13C83;" d="M170.747,318.473c1.282,0,2.328-1.047,2.328-2.328
			c0-1.283-1.045-2.328-2.328-2.328c-1.282,0-2.328,1.045-2.328,2.328C168.419,317.426,169.465,318.473,170.747,318.473z"/>
		<g>
			<g>
				<g>
					<path style="fill-rule:evenodd;clip-rule:evenodd;fill:#003053;" d="M108.461,326.154c-7.117-7.246-12.411,1.957-11.671,11.197
						c0.709,8.873,8.447,39.594,6.793,51.941h2.739C113.526,373.342,117.662,335.522,108.461,326.154z"/>
					<path style="fill-rule:evenodd;clip-rule:evenodd;fill:#1874BA;" d="M105.338,389.293c7.125-25.594-1.699-61.363-1.729-61.484
						c-0.053-0.219-0.274-0.353-0.494-0.301c-0.219,0.053-0.354,0.273-0.301,0.494c0.029,0.119,8.865,35.935,1.683,61.291H105.338z"
						/>
				</g>
				<g>
					<path style="fill-rule:evenodd;clip-rule:evenodd;fill:#1874BA;" d="M90.904,342.123c-7.499-3.973-9.39,4.695-6.467,11.869
						c2.458,6.027,13.434,24.027,17.343,35.301h3.63C105.87,373.748,99.849,346.861,90.904,342.123z"/>
					<path style="fill-rule:evenodd;clip-rule:evenodd;fill:#003053;" d="M104.086,389.293
						c-2.322-21.244-16.577-44.543-16.628-44.627c-0.098-0.16-0.308-0.213-0.469-0.115c-0.162,0.1-0.212,0.309-0.115,0.471
						c0.05,0.082,14.214,23.232,16.532,44.271H104.086z"/>
				</g>
				<g>
					<path style="fill-rule:evenodd;clip-rule:evenodd;fill:#1874BA;" d="M122.601,352.143c7.269-3.174,8.421,5.039,5.191,11.516
						c-2.221,4.457-10.325,15.986-15.627,25.635h-5.852C108.302,374.791,115.004,355.463,122.601,352.143z"/>
					<path style="fill-rule:evenodd;clip-rule:evenodd;fill:#003053;" d="M108.403,389.293c5.082-17.676,17.182-34.469,17.23-34.537
						c0.103-0.143,0.302-0.176,0.446-0.072c0.143,0.102,0.176,0.301,0.074,0.445c-0.047,0.066-12.025,16.688-17.096,34.164H108.403z
						"/>
				</g>
			</g>
			<g>
				<path style="fill-rule:evenodd;clip-rule:evenodd;fill:#101537;" d="M97.066,383.035h21.295c0.637,0,1.158,0.521,1.158,1.158
					v5.258c0,0.637-0.521,1.158-1.158,1.158H97.066c-0.637,0-1.158-0.522-1.158-1.158v-5.258
					C95.908,383.557,96.429,383.035,97.066,383.035z"/>
				<polygon style="fill-rule:evenodd;clip-rule:evenodd;fill:#101537;" points="100.719,387.313 114.709,387.313 118.362,390.609 
					115.378,402.103 107.714,402.103 100.05,402.103 97.066,390.609 				"/>
				<polygon style="fill-rule:evenodd;clip-rule:evenodd;fill:#00000F;" points="118.362,390.609 117.749,392.973 97.68,392.973 
					97.066,390.609 				"/>
			</g>
		</g>
		<path style="fill-rule:evenodd;clip-rule:evenodd;fill:#B83470;" d="M373.641,238.22c4.854,0.614,13.285,1.466,14.329,1.16
			c1.418-0.415,9.405-7.393,10.097-9.2c0,0,0.066-0.201-0.217-0.237c-0.284-0.036-1.277,0.068-1.587-0.24
			c-0.309-0.308-0.533-0.059-0.752,0.331c-0.22,0.391-6.6,4.931-8.256,5.834c-1.656,0.904-11.434-2.887-12.718-3.217
			C368.596,231.126,366.459,237.311,373.641,238.22z"/>
		<g>
			<path style="fill-rule:evenodd;clip-rule:evenodd;fill:#F18A00;" d="M394.658,231.563h18.009c0.088,0,0.174,0.005,0.259,0.015
				c1.473-0.396,1.531-1.784,1.614-3.815c0.041-0.986,0.088-2.108,0.289-3.346c0.502-3.079,3.776-8.584,5.369-11.124
				c0.006-0.013,0.015-0.025,0.023-0.037l0.001-0.002c0.456-0.727,0.769-1.202,0.831-1.295c0.769-1.306,1.395-2.706,1.855-4.178
				c0.597-1.905,0.919-3.932,0.919-6.037c0-5.568-2.258-10.609-5.906-14.258c-3.648-3.648-8.69-5.905-14.258-5.905
				c-5.568,0-10.608,2.257-14.258,5.905c-3.648,3.649-5.905,8.69-5.905,14.258c0,2.104,0.321,4.132,0.918,6.037
				c0.461,1.472,1.087,2.872,1.855,4.178c0.062,0.093,0.374,0.568,0.831,1.295l0.001,0.002c0.009,0.012,0.016,0.024,0.023,0.037
				c1.592,2.539,4.867,8.044,5.368,11.124c0.201,1.237,0.248,2.36,0.288,3.346c0.085,2.031,0.142,3.419,1.615,3.815
				C394.485,231.568,394.571,231.563,394.658,231.563z"/>
			<path style="fill-rule:evenodd;clip-rule:evenodd;fill:#FFFFFF;" d="M400.999,231.842c0,0.243-0.198,0.441-0.441,0.441
				c-0.244,0-0.441-0.198-0.441-0.441v-13.217c0-0.169-0.003-0.333-0.01-0.492c-0.292-0.069-0.569-0.145-0.834-0.229
				c-1.07-0.338-1.925-0.796-2.518-1.31c-0.647-0.563-0.995-1.202-0.995-1.85c0-0.183,0.027-0.365,0.084-0.544
				c0.175-0.553,0.591-0.946,1.122-1.123c0.373-0.124,0.801-0.138,1.233-0.021c0.418,0.113,0.845,0.347,1.235,0.721
				c0.712,0.683,1.313,1.851,1.502,3.628c0.817,0.148,1.73,0.231,2.727,0.231c0.995,0,1.909-0.083,2.727-0.231
				c0.189-1.777,0.79-2.945,1.502-3.628c0.391-0.375,0.817-0.608,1.234-0.721c0.434-0.116,0.86-0.102,1.233,0.021
				c0.532,0.177,0.948,0.57,1.122,1.123c0.057,0.18,0.085,0.362,0.085,0.544c0,0.648-0.349,1.288-0.996,1.85
				c-0.592,0.514-1.446,0.972-2.517,1.31c-0.265,0.083-0.543,0.16-0.834,0.229c-0.007,0.159-0.01,0.323-0.01,0.492v13.217
				c0,0.243-0.198,0.441-0.441,0.441c-0.244,0-0.441-0.198-0.441-0.441v-13.217c0-0.107,0.002-0.212,0.004-0.316
				c-0.812,0.134-1.705,0.209-2.668,0.209c-0.963,0-1.857-0.075-2.668-0.209c0.002,0.104,0.004,0.209,0.004,0.316V231.842
				L400.999,231.842z M408.502,214.411c-0.545,0.522-1.011,1.419-1.2,2.793c0.167-0.044,0.33-0.091,0.486-0.141
				c0.956-0.302,1.704-0.698,2.207-1.134c0.448-0.389,0.69-0.799,0.69-1.185c0-0.094-0.015-0.187-0.044-0.279
				c-0.086-0.272-0.292-0.466-0.557-0.554c-0.212-0.07-0.464-0.076-0.731-0.004C409.071,213.983,408.778,214.146,408.502,214.411
				L408.502,214.411z M400.024,217.204c-0.189-1.374-0.655-2.271-1.2-2.793c-0.275-0.265-0.569-0.428-0.852-0.504
				c-0.267-0.072-0.519-0.066-0.73,0.004c-0.265,0.088-0.472,0.282-0.557,0.554c-0.029,0.092-0.044,0.186-0.044,0.279
				c0,0.386,0.241,0.796,0.689,1.185c0.503,0.437,1.251,0.833,2.206,1.134C399.694,217.113,399.857,217.16,400.024,217.204z"/>
			<path style="fill-rule:evenodd;clip-rule:evenodd;fill:#00000F;" d="M407.882,242.355c0,1.935-1.889,3.504-4.219,3.504
				c-2.33,0-4.22-1.569-4.22-3.504c0-1.936,2.222-2.052,2.222-2.052L407.882,242.355z"/>
			<path style="fill-rule:evenodd;clip-rule:evenodd;fill:#00000F;" d="M394.717,231.401h17.893c0.604,0,1.151,0.247,1.549,0.644
				c0.397,0.397,0.645,0.946,0.645,1.549c0,0.604-0.247,1.152-0.645,1.549c-0.286,0.286-0.651,0.495-1.059,0.588
				c0.301,0.375,0.482,0.851,0.482,1.366c0,0.604-0.247,1.152-0.645,1.549c-0.397,0.397-0.946,0.644-1.549,0.644h-0.286
				c0.274,0.366,0.438,0.82,0.438,1.311c0,0.604-0.246,1.152-0.644,1.549c-0.397,0.397-0.946,0.643-1.55,0.643H397.98
				c-0.603,0-1.152-0.247-1.55-0.643c-0.397-0.398-0.644-0.946-0.644-1.549c0-0.491,0.162-0.945,0.437-1.311h-0.285
				c-0.603,0-1.151-0.247-1.549-0.644c-0.397-0.397-0.643-0.945-0.643-1.549c0-0.516,0.18-0.991,0.479-1.366
				c-0.407-0.094-0.771-0.302-1.058-0.588c-0.398-0.398-0.645-0.946-0.645-1.549c0-0.603,0.247-1.152,0.645-1.549
				C393.564,231.648,394.113,231.401,394.717,231.401z"/>
		</g>
		<path style="fill-rule:evenodd;clip-rule:evenodd;fill:#00061A;" d="M375.882,259.98c0.598-0.277,1.142-0.553,1.5,0.199
			c3.766,7.906,6.52,15.068,8.785,23.346c0.893,3.443-1.935,4.846-3.217,4.445c-3.844-1.195-15.049-21.938-15.092-22.061
			C366.685,262.492,375.882,259.98,375.882,259.98z"/>
		<path style="fill-rule:evenodd;clip-rule:evenodd;fill:#00061A;" d="M386.742,285.338c1.326,5.914,3.452,18.805,6.502,25.639
			c0,0,0.212,1.064-0.33,1.572c-0.543,0.508-1.509,0.598-2.253,0.147c-0.745-0.453-7.41-16.965-9.796-25.963
			c0,0-0.837-3.215,0.145-4.58C381.972,280.815,385.536,280.234,386.742,285.338z"/>
		<path style="fill-rule:evenodd;clip-rule:evenodd;fill:#1C2B3F;" d="M375.772,260.471c0.628,0.199,1.216,0.363,0.972,1.158
			c-2.565,8.375-5.376,15.514-9.3,23.146c-1.668,3.141-4.699,2.266-5.375,1.104c-1.546-2.654,1.44-16.598,2.965-23.107
			C365.87,259.205,372.485,258.908,375.772,260.471z"/>
		<path style="fill-rule:evenodd;clip-rule:evenodd;fill:#1C2B3F;" d="M366.588,286.527c-3.118,5.197-10.468,15.998-12.973,23.051
			c0,0-0.58,0.918-1.323,0.91c-0.742-0.006-1.505-0.607-1.732-1.447c-0.228-0.84,6.333-17.394,10.81-25.557
			c0,0,1.61-2.904,3.264-3.217C366.252,279.963,369.233,282,366.588,286.527z"/>
		<path style="fill-rule:evenodd;clip-rule:evenodd;fill:#E13C83;" d="M389.905,311.478c0.024,0.291,0.045,0.551,0.055,0.725
			c0.034,0.625,0.033,1.389-0.041,1.947c-0.073,0.561,0.029,0.844,0.029,0.844s-0.133,0.418,0.114,0.535
			c0.247,0.117,1.742,0.385,2.902,0.188c1.16-0.195,2.644-0.162,3.436,0.066c0.792,0.228,2.445,0.344,3.138-0.631
			c0,0,0.075-0.244-0.097-0.422c-0.172-0.176,0.163-1.297-0.926-1.488c-1.18-0.207-4.268-0.795-4.873-1.926
			c0,0-0.211-0.252-0.501-0.17c-0.29,0.084-0.783,0.682-1.547,0.693c-0.764,0.012-1.195,0.039-1.379-0.273
			C390.032,311.252,389.905,311.478,389.905,311.478L389.905,311.478z"/>
		<path style="fill-rule:evenodd;clip-rule:evenodd;fill:#E13C83;" d="M350.5,308.545c-0.098,0.275-0.187,0.52-0.25,0.682
			c-0.228,0.582-0.545,1.279-0.844,1.758c-0.299,0.478-0.322,0.779-0.322,0.779s-0.294,0.324-0.118,0.533
			c0.178,0.209,1.427,1.072,2.565,1.373c1.137,0.303,2.474,0.945,3.1,1.482c0.627,0.535,2.084,1.326,3.118,0.725
			c0,0,0.169-0.19,0.086-0.422c-0.083-0.234,0.685-1.113-0.227-1.74c-0.988-0.678-3.556-2.49-3.638-3.77
			c0,0-0.088-0.318-0.387-0.361c-0.298-0.045-0.995,0.295-1.694-0.01c-0.7-0.307-1.105-0.459-1.142-0.822
			C350.709,308.391,350.5,308.545,350.5,308.545L350.5,308.545z"/>
		<path style="fill-rule:evenodd;clip-rule:evenodd;fill:#E94D90;" d="M364.585,262.522c2.045,4.877,13.915,4.232,14.949,2.213
			h0.001l0,0c0.347-0.678,0.146-1.684-0.011-2.58c-2.003-11.509,2.957-25.491-5.092-29.458l-1.103-0.544
			c-0.081-0.439-0.005-0.902,0.176-1.37c-0.904-0.16-1.876-0.219-2.845-0.18l-0.742,0.999c-6.48,3.421-3.05,12.413-4.057,20.637
			C365.425,255.805,363.656,260.307,364.585,262.522z"/>
		<path style="fill-rule:evenodd;clip-rule:evenodd;fill:#F29C94;" d="M374.906,223.477L374.906,223.477
			c1.424,0.355,2.3,1.811,1.944,3.235l-1.314,5.275c-0.355,1.424-1.81,2.299-3.235,1.945l0,0c-1.425-0.355-2.3-1.811-1.944-3.235
			l1.314-5.275C372.026,223.997,373.481,223.122,374.906,223.477z"/>
		<path style="fill-rule:evenodd;clip-rule:evenodd;fill:#F29C94;" d="M370.347,227.954c-0.028,0.019,0.482,0.866-0.023,2.895
			c0.287-1.151,1.514-1.892,2.465-1.655c0,0,2.485,1.453,2.47,1.822c0.014,0.003,0.028,0.005,0.043,0.007
			c2.452,0.346,2.77-0.775,2.807-1.035c0.036-0.26,0.17-1.587,0.235-1.673c0.065-0.086,0.647-0.004,0.694-0.336
			c0.047-0.333-0.037-2.294-0.448-4.79c-0.411-2.496-2.619-3.825-2.619-3.825c-4.246,0.196-2.936,5.787-3.747,5.376
			c-0.812-0.411-1.57,0.16-1.337,1.211C370.919,226.096,370.268,227.836,370.347,227.954z"/>
		<path style="fill-rule:evenodd;clip-rule:evenodd;fill:#00061A;" d="M378.343,228.315c0,0-1.168-0.102-2.014-0.133
			c-0.847-0.032-1.455,0.002-1.901-0.498c-0.446-0.5-0.787-0.906-0.784-1.827c0.003-0.922,0.475-1.683,0.747-1.915
			c0.271-0.232,0.277-0.612,0.063-1.12c-0.215-0.507-0.674-3.179,2.028-3.085c0,0,0.084-0.238-0.268-0.892
			c-0.353-0.654-4.443-0.901-6.415,1.587c-1.973,2.488-1.263,4.632-0.572,6.088c0.075,0.159,0.139,0.312,0.191,0.458
			c0.001,0.004,0.268,0.55,0.447,1.004c0.176,0.443,0.667,0.823,1.041,0.513c0.44-0.391,0.79-0.941,0.725-1.685
			c0,0-0.814-1.665,0.021-2.048c0,0,0.564-0.492,1.138,0.678c0,0,0.137,0.608,0.067,1.154c-0.069,0.547-0.414,1.865,0.224,3.768
			c0.639,1.902,2.659,1.663,3.361,1.761c0.701,0.099,1.556-0.098,1.657-0.815c0.1-0.717,0.329-2.334,0.363-2.58
			C378.496,228.483,378.411,228.323,378.343,228.315z"/>
		<path style="fill-rule:evenodd;clip-rule:evenodd;fill:#E13C83;" d="M372.587,242.632c5.382,1.192,14.75,3.016,15.953,2.767
			c1.633-0.338,11.307-7.586,12.268-9.602c0,0,0.095-0.225-0.22-0.295c-0.314-0.07-1.44-0.049-1.755-0.434
			c-0.314-0.386-0.592-0.122-0.878,0.307c-0.286,0.429-7.907,5.028-9.857,5.904c-1.95,0.877-12.527-4.47-13.934-4.979
			C367.656,233.95,364.625,240.868,372.587,242.632z"/>
		<g>
			<path style="fill-rule:evenodd;clip-rule:evenodd;fill:#F29C94;" d="M400.868,236.058l1.439-1.542
				c0.56-0.599,0.568-1.592,0.021-2.206h-0.001c-0.548-0.614-1.455-0.626-2.014-0.027l-1.439,1.542
				c-0.56,0.599-0.569,1.592-0.021,2.206l0,0C399.402,236.645,400.309,236.657,400.868,236.058z"/>
			<path style="fill-rule:evenodd;clip-rule:evenodd;fill:#F29C94;" d="M399.685,234.244l-0.116-0.983
				c-0.043-0.367-0.371-0.566-0.728-0.441l0,0c-0.356,0.123-0.613,0.524-0.57,0.891l0.117,0.983c0.043,0.367,0.37,0.565,0.728,0.442
				v-0.001C399.473,235.011,399.729,234.61,399.685,234.244z"/>
		</g>
		<g>
			<path style="fill-rule:evenodd;clip-rule:evenodd;fill:#E13C83;" d="M238.455,286.334h20.581c1.495,0,2.718,1.223,2.718,2.719
				v11.207v0.83v7.135c0,0.125-0.071,0.232-0.186,0.281c-0.116,0.047-0.242,0.021-0.331-0.066l-4.632-4.631h-18.149
				c-1.495,0-2.718-1.225-2.718-2.719v-12.037C235.737,287.557,236.96,286.334,238.455,286.334z"/>
			<g>
				<path style="fill-rule:evenodd;clip-rule:evenodd;fill:#FFFFFF;" d="M242.327,297.01c1.067,0,1.938-0.871,1.938-1.939
					c0-1.066-0.87-1.938-1.938-1.938c-1.068,0-1.938,0.871-1.938,1.938C240.389,296.139,241.259,297.01,242.327,297.01z"/>
				<path style="fill-rule:evenodd;clip-rule:evenodd;fill:#FFFFFF;" d="M248.745,297.01c1.067,0,1.939-0.871,1.939-1.939
					c0-1.066-0.871-1.938-1.939-1.938c-1.067,0-1.938,0.871-1.938,1.938C246.807,296.139,247.678,297.01,248.745,297.01z"/>
				<path style="fill-rule:evenodd;clip-rule:evenodd;fill:#FFFFFF;" d="M255.163,297.01c1.067,0,1.939-0.871,1.939-1.939
					c0-1.066-0.871-1.938-1.939-1.938c-1.067,0-1.938,0.871-1.938,1.938C253.225,296.139,254.096,297.01,255.163,297.01z"/>
			</g>
		</g>
		<g>
			<path style="fill-rule:evenodd;clip-rule:evenodd;fill:#1874BA;" d="M354.471,190.017h20.58c1.495,0,2.719,1.223,2.719,2.718
				v11.209v0.829v7.135c0,0.126-0.072,0.232-0.188,0.28c-0.116,0.048-0.242,0.022-0.331-0.066l-4.631-4.631h-18.149
				c-1.495,0-2.718-1.223-2.718-2.718v-12.038C351.753,191.24,352.976,190.017,354.471,190.017z"/>
			<g>
				<path style="fill-rule:evenodd;clip-rule:evenodd;fill:#FFFFFF;" d="M358.343,200.692c1.067,0,1.938-0.871,1.938-1.938
					c0-1.067-0.871-1.939-1.938-1.939c-1.067,0-1.939,0.871-1.939,1.939C356.404,199.821,357.275,200.692,358.343,200.692z"/>
				<path style="fill-rule:evenodd;clip-rule:evenodd;fill:#FFFFFF;" d="M364.761,200.692c1.068,0,1.939-0.871,1.939-1.938
					c0-1.067-0.87-1.939-1.939-1.939c-1.067,0-1.938,0.871-1.938,1.939C362.822,199.821,363.693,200.692,364.761,200.692z"/>
				<path style="fill-rule:evenodd;clip-rule:evenodd;fill:#FFFFFF;" d="M371.18,200.692c1.067,0,1.938-0.871,1.938-1.938
					c0-1.067-0.87-1.939-1.938-1.939c-1.068,0-1.939,0.871-1.939,1.939C369.241,199.821,370.111,200.692,371.18,200.692z"/>
			</g>
		</g>
		<g>
			<path style="fill-rule:evenodd;clip-rule:evenodd;fill:#F18A00;" d="M212.974,324.371l-0.526-0.639c0,0-3.732,5.432-6.637,11.063
				c-2.905,5.629,5.79,8.164,9.353,9.793c0,0,0.248,0.088,0.464-0.092c0.217-0.18,0.443-0.629,0.164-1.205
				c-0.279-0.574-6.296-4.176-7.077-5.357c-0.846-1.281,4.254-7.563,5.756-9.119L212.974,324.371z"/>
			<path style="fill-rule:evenodd;clip-rule:evenodd;fill:#00061A;" d="M221.189,319.66c0,0-0.157,1.473,0.374,2.232
				c0.53,0.76-1.874,1.133-3.471,0.469c-1.597-0.664-1.58-3.08-1.094-3.385C217.485,318.67,221.189,319.66,221.189,319.66z"/>
			<path style="fill-rule:evenodd;clip-rule:evenodd;fill:#00061A;" d="M219.264,347.043c0.575-0.318,1.098-0.629,1.506,0.092
				c4.3,7.604,7.539,14.539,10.371,22.617c1.129,3.363-1.585,4.955-2.89,4.648c-3.908-0.922-16.506-20.779-16.556-20.898
				C210.289,350.185,219.264,347.043,219.264,347.043z"/>
			<path style="fill-rule:evenodd;clip-rule:evenodd;fill:#00061A;" d="M231.867,371.43c1.888,5.744,5.244,18.336,8.931,24.826
				c0,0,0.872,1.383,0.383,1.941c-0.49,0.555-1.999,0.391-2.781,0.014c-0.782-0.377-8.995-16.127-12.232-24.83
				c0,0-1.141-3.109-0.297-4.561C226.694,367.4,230.176,366.48,231.867,371.43z"/>
			<path style="fill-rule:evenodd;clip-rule:evenodd;fill:#1C2B3F;" d="M221.296,349.014c0.623,0.209,1.206,0.383,0.95,1.172
				c-2.698,8.309-5.62,15.383-9.659,22.93c-1.716,3.105-4.725,2.18-5.379,1.012c-1.498-2.674,1.712-16.529,3.341-22.996
				C211.441,347.586,218.044,347.4,221.296,349.014z"/>
			<path style="fill-rule:evenodd;clip-rule:evenodd;fill:#1C2B3F;" d="M211.864,374.773c-2.914,5.295-9.84,16.334-12.075,23.457
				c0,0-0.544,0.935-1.285,0.957c-0.741,0.02-1.523-0.551-1.781-1.379c-0.258-0.83,5.666-17.574,9.827-25.875
				c0,0,1.498-2.955,3.134-3.328C211.286,368.242,214.333,370.162,211.864,374.773z"/>
			<path style="fill-rule:evenodd;clip-rule:evenodd;fill:#FCC100;" d="M210.911,326.336c-1.918,6.148,2.837,10.676-2.005,27.373
				c-0.622,2.143,10.901,3.107,15.563,0.848c0,0,1.279-0.676,0.878-3.088c-0.401-2.414-3.325-6.391-2.606-11.191
				c0.718-4.799,2.182-9.072,1.283-11.09c-1.775-3.984-3.343-6.238-4.735-7.117C216.604,320.377,212.231,322.107,210.911,326.336z"
				/>
			<path style="fill-rule:evenodd;clip-rule:evenodd;fill:#C9625A;" d="M220.235,319.545l0.012,0.793c0,0-0.564-0.055-0.828,0.453
				c-0.265,0.506-0.053,1.043-0.118,1.459c-0.065,0.416-2.111-0.443-2.392-0.721c-0.281-0.275-0.421-0.603-0.24-0.904
				c0.182-0.301,0.827-1.246,0.93-1.592C217.703,318.685,220.235,319.545,220.235,319.545z"/>
			<path style="fill-rule:evenodd;clip-rule:evenodd;fill:#F29C94;" d="M216.25,315.467L216.25,315.467c0,0-0.145,0.305-0.376,0.777
				c1.248,1.762,2.203,3.789,4.546,4.121c1.787,0.254,2.121-0.621,2.173-0.842c0.057-0.242,0.3-1.484,0.369-1.561
				c0.069-0.076,0.612,0.053,0.685-0.258c0.073-0.311,0.165-2.17-0.006-4.565c-0.171-2.395-2.142-3.842-2.142-3.842
				c-4.029-0.185-3.278,5.211-4.009,4.752c-0.73-0.459-1.497,0.014-1.368,1.027C216.14,315.221,216.186,315.35,216.25,315.467z"/>
			<path style="fill-rule:evenodd;clip-rule:evenodd;fill:#00061A;" d="M222.486,310.291c-2.193-0.213-1.058,4.266-1.532,6.072
				c-0.786,2.994-2.489,3.512-1.75,6.584c0,0,0.104,0.139-0.044,0.313c-0.147,0.176-7.799-0.453-8.192-3.596
				c-0.394-3.141,2.205-3.854,2.491-6.949c0.287-3.096,0.967-4.813,3.827-5.295C220.146,306.94,223.791,309.047,222.486,310.291z"/>
			<path style="fill-rule:evenodd;clip-rule:evenodd;fill:#FCC100;" d="M237.821,397.508c0.014,0.289,0.026,0.549,0.029,0.721
				c0.011,0.625-0.017,1.387-0.111,1.941c-0.094,0.555-0.001,0.842-0.001,0.842s-0.148,0.412,0.094,0.537
				c0.242,0.127,1.722,0.447,2.886,0.293c1.163-0.154,2.641-0.068,3.422,0.19c0.781,0.256,2.425,0.432,3.15-0.518
				c0,0,0.084-0.238-0.081-0.422c-0.165-0.184,0.21-1.287-0.87-1.518c-1.168-0.25-4.225-0.945-4.787-2.096
				c0,0-0.202-0.26-0.494-0.185c-0.293,0.072-0.806,0.65-1.567,0.635c-0.761-0.018-1.192-0.004-1.364-0.324
				c-0.172-0.318-0.307-0.098-0.307-0.098V397.508z"/>
			<path style="fill-rule:evenodd;clip-rule:evenodd;fill:#F18A00;" d="M212.672,329.877c0.738,5.002,2.238,13.625,2.844,14.574
				c0.823,1.289,10.197,7.207,12.238,7.373c0,0,0.223,0.008,0.181-0.285c-0.043-0.291-0.429-1.25-0.201-1.645
				c0.228-0.397-0.089-0.547-0.55-0.652c-0.461-0.105-6.892-5.133-8.281-6.518c-1.389-1.383-0.265-12.195-0.29-13.566
				C218.5,322.813,211.581,322.478,212.672,329.877z"/>
			<g>
				<path style="fill-rule:evenodd;clip-rule:evenodd;fill:#F29C94;" d="M227.222,351.846l1.788,0.736
					c0.695,0.287,1.55-0.025,1.9-0.695l0,0c0.35-0.67,0.068-1.451-0.627-1.738l-1.788-0.736c-0.695-0.287-1.55,0.025-1.9,0.695l0,0
					C226.244,350.775,226.527,351.559,227.222,351.846z"/>
				<path style="fill-rule:evenodd;clip-rule:evenodd;fill:#F29C94;" d="M228.397,350.244l0.807-0.418
					c0.301-0.156,0.366-0.502,0.144-0.768l0,0c-0.221-0.268-0.648-0.357-0.949-0.201l-0.806,0.416
					c-0.301,0.156-0.366,0.502-0.145,0.768l0,0C227.669,350.309,228.096,350.4,228.397,350.244z"/>
			</g>
			<path style="fill-rule:evenodd;clip-rule:evenodd;fill:#FCC100;" d="M197.119,395.51c-0.079,0.279-0.152,0.529-0.204,0.693
				c-0.189,0.596-0.459,1.309-0.726,1.805c-0.267,0.496-0.271,0.797-0.271,0.797s-0.272,0.342-0.083,0.539
				c0.189,0.197,1.489,0.973,2.641,1.199c1.151,0.229,2.524,0.781,3.182,1.275c0.658,0.492,2.159,1.186,3.15,0.52
				c0,0,0.156-0.201,0.058-0.428c-0.098-0.225,0.611-1.152-0.338-1.715c-1.027-0.611-3.701-2.248-3.865-3.518
				c0,0-0.108-0.311-0.408-0.334c-0.3-0.025-0.971,0.359-1.688,0.1c-0.716-0.26-1.129-0.385-1.19-0.742
				C197.318,395.344,197.119,395.51,197.119,395.51L197.119,395.51z"/>
		</g>
		<g>
			<path style="fill-rule:evenodd;clip-rule:evenodd;fill:#C0CDEA;" d="M164.632,357.879v32.715c0,2.31-1.89,4.199-4.2,4.199l0,0
				c-2.31,0-4.2-1.889-4.2-4.199v-32.715H164.632z"/>
			<path style="fill-rule:evenodd;clip-rule:evenodd;fill:#C0CDEA;" d="M155.144,355.959h10.577c1.084,0,1.97,0.887,1.97,1.971l0,0
				c0,1.084-0.886,1.971-1.97,1.971h-10.577c-1.084,0-1.97-0.887-1.97-1.971l0,0C153.173,356.846,154.06,355.959,155.144,355.959z"
				/>
			<path style="fill-rule:evenodd;clip-rule:evenodd;fill:#C0CDEA;" d="M182.467,350.543v45.055c0,2.309-1.89,4.199-4.2,4.199
				h-0.001c-2.309,0-4.199-1.891-4.199-4.199v-45.055H182.467z"/>
			<path style="fill-rule:evenodd;clip-rule:evenodd;fill:#C0CDEA;" d="M172.979,348.623h10.577c1.084,0,1.97,0.887,1.97,1.971l0,0
				c0,1.084-0.886,1.971-1.97,1.971h-10.577c-1.084,0-1.97-0.887-1.97-1.971l0,0C171.009,349.51,171.895,348.623,172.979,348.623z"
				/>
			<path style="fill-rule:evenodd;clip-rule:evenodd;fill:#C0CDEA;" d="M200.303,355.598v34.996c0,2.309-1.89,4.199-4.199,4.199
				h-0.001c-2.31,0-4.199-1.889-4.199-4.199v-34.996H200.303z"/>
			<path style="fill-rule:evenodd;clip-rule:evenodd;fill:#C0CDEA;" d="M190.814,353.678h10.578c1.084,0,1.97,0.887,1.97,1.971l0,0
				c0,1.084-0.887,1.971-1.97,1.971h-10.578c-1.083,0-1.969-0.887-1.969-1.971l0,0C188.845,354.565,189.731,353.678,190.814,353.678
				z"/>
			<path style="fill-rule:evenodd;clip-rule:evenodd;fill:#FFFFFF;" d="M163.097,357.879v32.715c0,2.31-1.89,4.199-4.199,4.199h0
				c-2.31,0-4.2-1.889-4.2-4.199v-32.715H163.097z"/>
			<path style="fill-rule:evenodd;clip-rule:evenodd;fill:#E13C83;" d="M156.408,369.44v21.154c0,1.365,1.124,2.488,2.49,2.488
				c1.366,0,2.489-1.123,2.489-2.488V369.44H156.408z"/>
			<path style="fill-rule:evenodd;clip-rule:evenodd;fill:#FFFFFF;" d="M153.609,355.959h10.577c1.083,0,1.97,0.887,1.97,1.971l0,0
				c0,1.084-0.887,1.971-1.97,1.971h-10.577c-1.084,0-1.97-0.887-1.97-1.971l0,0C151.639,356.846,152.525,355.959,153.609,355.959z"
				/>
			<path style="fill-rule:evenodd;clip-rule:evenodd;fill:#FFFFFF;" d="M180.933,350.543v45.055c0,2.309-1.89,4.199-4.2,4.199
				h-0.001c-2.309,0-4.199-1.891-4.199-4.199v-45.055H180.933z"/>
			<path style="fill-rule:evenodd;clip-rule:evenodd;fill:#1874BA;" d="M174.243,362.102v33.496c0,1.365,1.124,2.488,2.49,2.488
				c1.366,0,2.489-1.123,2.489-2.488v-33.496H174.243z"/>
			<path style="fill-rule:evenodd;clip-rule:evenodd;fill:#FFFFFF;" d="M171.444,348.623h10.577c1.083,0,1.97,0.887,1.97,1.971l0,0
				c0,1.084-0.887,1.971-1.97,1.971h-10.577c-1.083,0-1.97-0.887-1.97-1.971l0,0C169.474,349.51,170.361,348.623,171.444,348.623z"
				/>
			<path style="fill-rule:evenodd;clip-rule:evenodd;fill:#FFFFFF;" d="M198.768,355.598v34.996c0,2.309-1.89,4.199-4.2,4.199l0,0
				c-2.31,0-4.2-1.889-4.2-4.199v-34.996H198.768z"/>
			<path style="fill-rule:evenodd;clip-rule:evenodd;fill:#5EB9BD;" d="M192.079,367.156v23.438c0,1.365,1.123,2.488,2.489,2.488
				c1.366,0,2.489-1.123,2.489-2.488v-23.438H192.079z"/>
			<path style="fill-rule:evenodd;clip-rule:evenodd;fill:#00000F;" d="M205.664,381.133L205.664,381.133
				c0,0.355-0.291,0.646-0.648,0.646H148.45c-0.356,0-0.648-0.291-0.648-0.646l0,0c0-0.357,0.292-0.648,0.648-0.648h56.565
				C205.372,380.484,205.664,380.775,205.664,381.133z"/>
			<path style="fill-rule:evenodd;clip-rule:evenodd;fill:#FFFFFF;" d="M189.28,353.678h10.578c1.083,0,1.97,0.887,1.97,1.971l0,0
				c0,1.084-0.887,1.971-1.97,1.971H189.28c-1.083,0-1.97-0.887-1.97-1.971l0,0C187.31,354.565,188.196,353.678,189.28,353.678z"/>
			<path style="fill-rule:evenodd;clip-rule:evenodd;fill:#00000F;" d="M205.664,377.762L205.664,377.762
				c0,0.6-0.49,1.09-1.089,1.09h-55.683c-0.599,0-1.089-0.49-1.089-1.09l0,0c0-0.6,0.49-1.088,1.089-1.088h55.683
				C205.173,376.674,205.664,377.162,205.664,377.762z"/>
			<g>
				<path style="fill-rule:evenodd;clip-rule:evenodd;fill:#00000F;" d="M148.113,371.074L148.113,371.074
					c1.483,0,2.696,1.213,2.696,2.695v29.035c0,1.482-1.213,2.695-2.696,2.695l0,0c-1.483,0-2.696-1.213-2.696-2.695V373.77
					C145.417,372.287,146.63,371.074,148.113,371.074z"/>
				<path style="fill-rule:evenodd;clip-rule:evenodd;fill:#00000F;" d="M205.353,371.074L205.353,371.074
					c1.483,0,2.696,1.213,2.696,2.695v29.035c0,1.482-1.213,2.695-2.696,2.695l0,0c-1.483,0-2.696-1.213-2.696-2.695V373.77
					C202.657,372.287,203.87,371.074,205.353,371.074z"/>
			</g>
		</g>
		<g>
			<path style="fill-rule:evenodd;clip-rule:evenodd;fill:#EE788F;" d="M92.59,415.107h311.893c1.671,0,3.039,1.482,3.039,3.293
				v16.191c0,1.811-1.368,3.293-3.039,3.293H92.59c-1.671,0-3.04-1.482-3.04-3.293V418.4
				C89.551,416.59,90.918,415.107,92.59,415.107z"/>
			<path style="fill-rule:evenodd;clip-rule:evenodd;fill:#E94D90;" d="M109.445,437.885h6.501V421.02h-6.501V437.885
				L109.445,437.885z M379.299,437.885h8.329V421.02h-8.329V437.885L379.299,437.885z M199.622,437.885h175.512V421.02H199.622
				V437.885L199.622,437.885z M178.04,437.885h8.33V421.02h-8.33V437.885L178.04,437.885z M164.41,437.885h4.922V421.02h-4.922
				V437.885z"/>
			<path style="fill-rule:evenodd;clip-rule:evenodd;fill:#00000F;" d="M92.59,415.107h311.892c1.672,0,3.04,1.482,3.04,3.293v6.93
				H89.551v-6.93C89.551,416.59,90.919,415.107,92.59,415.107z"/>
			<path style="fill-rule:evenodd;clip-rule:evenodd;fill:#F5C8B4;" d="M61.258,402.103h374.557c1.452,0,2.641,1.287,2.641,2.859
				v13.627c0,1.572-1.188,2.861-2.641,2.861H61.258c-1.451,0-2.64-1.287-2.64-2.861v-13.627
				C58.618,403.391,59.806,402.103,61.258,402.103z"/>
			<path style="fill-rule:evenodd;clip-rule:evenodd;fill:#F4BCA3;" d="M417.032,402.103h9.135v19.348h-9.135V402.103
				L417.032,402.103z M241.093,402.103h6.917v19.348h-6.917V402.103L241.093,402.103z M76.17,402.103h11.704v19.348H76.17V402.103
				L76.17,402.103z M93.726,402.103h104.806v19.348H93.726V402.103L93.726,402.103z M217.153,402.103h11.704v19.348h-11.704V402.103
				z"/>
			<path style="fill-rule:evenodd;clip-rule:evenodd;fill:#3B405F;" d="M94.331,430.313c0.816,0,1.478,0.717,1.478,1.602
				c0,0.885-0.662,1.602-1.478,1.602c-0.816,0-1.479-0.717-1.479-1.602C92.852,431.029,93.514,430.313,94.331,430.313z"/>
			<path style="fill-rule:evenodd;clip-rule:evenodd;fill:#3B405F;" d="M402.742,430.313c0.816,0,1.479,0.717,1.479,1.602
				c0,0.885-0.662,1.602-1.479,1.602s-1.478-0.717-1.478-1.602C401.265,431.029,401.926,430.313,402.742,430.313z"/>
			<path style="fill-rule:evenodd;clip-rule:evenodd;fill:#FFFFFF;" d="M438.455,407.406H259.001l-5.585,3.494
				c-0.074,0.045-0.155,0.068-0.235,0.068v0.002H58.618v-1.027h194.441l5.546-3.469c0.077-0.059,0.172-0.094,0.274-0.094h179.576
				V407.406z"/>
		</g>
		<path style="fill-rule:evenodd;clip-rule:evenodd;fill:#C0CDEA;" d="M280.053,101.574L280.053,101.574L280.053,101.574z
			 M282.206,93.378c0.749-0.749,1.784-1.213,2.928-1.213c1.143,0,2.179,0.463,2.928,1.213c0.749,0.749,1.213,1.785,1.213,2.928
			c0,1.144-0.464,2.179-1.213,2.928c-0.749,0.749-1.784,1.213-2.928,1.213c-1.144,0-2.179-0.463-2.928-1.213
			c-0.75-0.75-1.213-1.785-1.213-2.928C280.993,95.163,281.456,94.127,282.206,93.378L282.206,93.378z M283.101,89.274
			c-0.574,0.165-1.118,0.399-1.623,0.69c-0.518,0.3-0.996,0.661-1.424,1.074c-0.084,0.08-0.208,0.092-0.304,0.037l-1.924-1.111
			l-0.011-0.007c-0.11-0.06-0.236-0.07-0.351-0.039c-0.118,0.032-0.225,0.108-0.29,0.221l-0.009,0.013l-1.353,2.345
			c-0.065,0.113-0.078,0.244-0.046,0.362c0.031,0.118,0.108,0.225,0.221,0.29l0.014,0.008l1.908,1.102
			c0.101,0.058,0.147,0.173,0.12,0.281l0,0c-0.07,0.284-0.124,0.576-0.16,0.875c-0.035,0.291-0.054,0.589-0.054,0.892
			c0,0.303,0.019,0.601,0.054,0.892c0.036,0.299,0.09,0.591,0.161,0.875c0.028,0.118-0.03,0.237-0.135,0.288l-1.908,1.102v0.001
			c-0.112,0.065-0.189,0.171-0.221,0.29c-0.032,0.118-0.019,0.249,0.046,0.362l1.362,2.358l0,0c0.065,0.113,0.172,0.189,0.29,0.221
			c0.118,0.032,0.248,0.019,0.361-0.046l0.014-0.007l1.911-1.104c0.1-0.058,0.223-0.039,0.303,0.037
			c0.427,0.413,0.905,0.774,1.423,1.073c0.509,0.294,1.057,0.528,1.634,0.694c0.112,0.032,0.186,0.134,0.186,0.245v2.219
			c0,0.131,0.054,0.25,0.14,0.336c0.087,0.087,0.206,0.14,0.336,0.14h2.724c0.131,0,0.25-0.053,0.337-0.14
			c0.086-0.086,0.14-0.205,0.14-0.336v-2.219c0-0.12,0.083-0.221,0.195-0.248c0.574-0.165,1.118-0.399,1.623-0.691
			c0.519-0.299,0.996-0.661,1.424-1.073c0.087-0.084,0.219-0.093,0.316-0.029l1.91,1.104c0.113,0.065,0.243,0.078,0.362,0.046
			c0.118-0.032,0.225-0.108,0.29-0.221l0.008-0.013l1.354-2.345l-0.001,0c0.065-0.113,0.078-0.243,0.047-0.361
			c-0.032-0.119-0.108-0.225-0.221-0.289l-1.923-1.11c-0.1-0.058-0.146-0.173-0.119-0.28l-0.001,0
			c0.07-0.284,0.125-0.576,0.161-0.875c0.035-0.291,0.054-0.589,0.054-0.892c0-0.303-0.018-0.601-0.054-0.892
			c-0.036-0.299-0.091-0.591-0.161-0.874c-0.029-0.118,0.029-0.237,0.135-0.289l1.908-1.102c0.112-0.065,0.188-0.171,0.221-0.29
			c0.031-0.118,0.018-0.249-0.047-0.361l-0.008-0.014l-1.353-2.345l0,0c-0.066-0.113-0.172-0.189-0.29-0.221
			c-0.119-0.032-0.249-0.019-0.362,0.046l0.001,0l-1.924,1.111c-0.103,0.06-0.23,0.039-0.31-0.042
			c-0.426-0.411-0.902-0.77-1.418-1.068c-0.509-0.294-1.056-0.528-1.634-0.693c-0.111-0.032-0.185-0.134-0.185-0.245v-2.22
			c0-0.13-0.054-0.25-0.14-0.336c-0.087-0.086-0.206-0.14-0.337-0.14h-2.724c-0.13,0-0.249,0.054-0.336,0.14
			c-0.086,0.086-0.14,0.206-0.14,0.336v2.22C283.296,89.146,283.212,89.247,283.101,89.274z"/>
		<path style="fill-rule:evenodd;clip-rule:evenodd;fill:#C0CDEA;" d="M302.139,122.388c0.897-0.897,1.972-1.622,3.169-2.118
			c1.151-0.477,2.411-0.74,3.729-0.74c1.318,0,2.578,0.263,3.729,0.74c1.197,0.496,2.272,1.22,3.17,2.118
			c0.898,0.897,1.622,1.973,2.117,3.169c0.477,1.151,0.74,2.41,0.74,3.729c0,1.318-0.264,2.578-0.74,3.729
			c-0.496,1.197-1.22,2.272-2.117,3.17c-0.897,0.897-1.972,1.621-3.168,2.117c-1.15,0.477-2.411,0.741-3.73,0.741
			c-1.318,0-2.579-0.263-3.729-0.74c-1.196-0.496-2.272-1.22-3.169-2.118c-0.898-0.898-1.622-1.973-2.118-3.169
			c-0.477-1.151-0.74-2.411-0.74-3.729c0-1.319,0.264-2.579,0.74-3.729C300.517,124.361,301.241,123.286,302.139,122.388
			L302.139,122.388z M305.649,121.104c-1.079,0.448-2.054,1.105-2.872,1.924c-0.817,0.818-1.477,1.793-1.924,2.873
			c-0.431,1.041-0.669,2.185-0.669,3.387c0,1.202,0.238,2.346,0.669,3.387c0.448,1.08,1.107,2.055,1.924,2.873
			c0.818,0.818,1.793,1.476,2.872,1.923c1.042,0.431,2.186,0.67,3.388,0.67c1.2,0,2.344-0.238,3.385-0.67
			c1.081-0.447,2.057-1.105,2.874-1.923c0.818-0.818,1.477-1.793,1.924-2.873c0.431-1.041,0.669-2.185,0.669-3.387
			c0-1.202-0.238-2.346-0.669-3.387c-0.447-1.08-1.105-2.055-1.924-2.873c-0.817-0.818-1.793-1.476-2.872-1.923
			c-1.041-0.432-2.186-0.67-3.387-0.67C307.835,120.434,306.691,120.672,305.649,121.104L305.649,121.104z M304.571,113.925
			c-0.61,0.176-1.211,0.391-1.798,0.641c-0.596,0.253-1.172,0.542-1.727,0.862c-0.564,0.326-1.107,0.687-1.627,1.078
			c-0.522,0.394-1.018,0.818-1.485,1.268c-0.166,0.16-0.373,0.253-0.585,0.278c-0.216,0.027-0.44-0.017-0.636-0.13
			c-1.433-0.827-2.939-1.646-4.342-2.507c-0.068-0.036-0.14-0.057-0.211-0.065c-0.081-0.009-0.162-0.002-0.239,0.018
			c-0.08,0.021-0.155,0.058-0.22,0.107c-0.063,0.048-0.117,0.108-0.158,0.18c-1.045,1.58-2.093,3.622-3.06,5.298
			c-0.041,0.071-0.066,0.148-0.076,0.225c-0.01,0.081-0.003,0.165,0.019,0.247c0.022,0.079,0.058,0.154,0.107,0.219
			c0.047,0.063,0.107,0.117,0.18,0.158c1.289,0.852,2.949,1.705,4.315,2.494c0.2,0.115,0.347,0.288,0.431,0.483
			c0.029,0.069,0.051,0.14,0.064,0.213l0.089,0.03l-0.1,0.403c-0.078,0.317-0.147,0.633-0.205,0.948
			c-0.056,0.306-0.104,0.627-0.146,0.963c-0.04,0.326-0.069,0.65-0.089,0.97c-0.018,0.313-0.028,0.64-0.028,0.981
			c0,0.341,0.01,0.667,0.028,0.979c0.02,0.321,0.049,0.645,0.089,0.972c0.041,0.335,0.09,0.655,0.146,0.962
			c0.058,0.315,0.127,0.632,0.205,0.949c0.058,0.235,0.029,0.47-0.065,0.673c-0.094,0.203-0.255,0.372-0.462,0.479l-3.822,2.206
			l0.002,0.001l-0.453,0.261c-0.072,0.042-0.133,0.096-0.181,0.159c-0.049,0.064-0.085,0.14-0.106,0.219
			c-0.021,0.082-0.028,0.166-0.019,0.247c0.01,0.076,0.035,0.153,0.076,0.225l2.83,4.903l0.001-0.001l0.229,0.396
			c0.041,0.072,0.096,0.132,0.158,0.18c0.065,0.049,0.14,0.085,0.22,0.107c0.081,0.021,0.165,0.028,0.245,0.018
			c0.076-0.01,0.152-0.035,0.224-0.076c1.369-0.86,2.913-1.681,4.326-2.496c0.201-0.115,0.422-0.155,0.631-0.13
			c0.217,0.026,0.423,0.121,0.585,0.276l0.002,0.002c0.467,0.451,0.964,0.874,1.486,1.269c0.52,0.392,1.063,0.751,1.626,1.077
			c0.558,0.322,1.139,0.613,1.738,0.868c0.589,0.25,1.2,0.467,1.83,0.648c0.222,0.063,0.406,0.195,0.535,0.367
			c0.132,0.174,0.206,0.391,0.206,0.617l0.003,4.987c0,0.083,0.016,0.163,0.046,0.234c0.03,0.074,0.077,0.143,0.136,0.201
			c0.057,0.058,0.126,0.105,0.202,0.136c0.07,0.03,0.149,0.046,0.233,0.046h6.12c0.084,0,0.163-0.016,0.234-0.046
			c0.076-0.031,0.145-0.078,0.202-0.135c0.058-0.059,0.104-0.128,0.135-0.202c0.03-0.071,0.047-0.15,0.047-0.234v-4.987
			c0-0.238,0.083-0.458,0.222-0.633c0.141-0.178,0.339-0.309,0.566-0.363c0.61-0.176,1.21-0.391,1.798-0.641
			c0.596-0.253,1.172-0.542,1.727-0.863c0.563-0.326,1.106-0.686,1.626-1.078c0.523-0.394,1.02-0.818,1.487-1.269
			c0.173-0.166,0.391-0.26,0.614-0.28c0.227-0.021,0.46,0.034,0.656,0.164l4.27,2.464c0.071,0.041,0.148,0.066,0.226,0.076
			c0.081,0.01,0.165,0.003,0.247-0.018c0.079-0.021,0.154-0.058,0.219-0.107c0.063-0.048,0.117-0.108,0.158-0.18
			c1.015-1.769,2.045-3.53,3.06-5.298c0.04-0.071,0.066-0.148,0.076-0.226c0.01-0.08,0.003-0.164-0.018-0.246
			c-0.021-0.081-0.058-0.156-0.107-0.22c-0.047-0.063-0.106-0.117-0.177-0.158l-4.319-2.494c-0.2-0.115-0.347-0.287-0.431-0.482
			c-0.022-0.053-0.041-0.108-0.054-0.165l-0.113-0.023l0.113-0.458c0.078-0.316,0.148-0.633,0.205-0.948
			c0.057-0.307,0.105-0.628,0.146-0.963c0.04-0.326,0.07-0.651,0.089-0.971c0.019-0.313,0.028-0.639,0.028-0.98
			c0-0.341-0.01-0.668-0.028-0.98c-0.019-0.32-0.049-0.644-0.088-0.97c-0.042-0.339-0.091-0.661-0.146-0.966
			c-0.058-0.314-0.126-0.63-0.205-0.946c-0.058-0.236-0.029-0.473,0.066-0.675c0.095-0.202,0.255-0.372,0.459-0.477l4.277-2.47
			c0.07-0.039,0.131-0.094,0.179-0.157c0.049-0.063,0.085-0.139,0.107-0.22c0.021-0.081,0.028-0.165,0.018-0.246
			c-0.011-0.077-0.036-0.154-0.076-0.226c-1.045-1.553-2.091-3.628-3.06-5.298c-0.041-0.072-0.096-0.132-0.158-0.18
			c-0.065-0.049-0.14-0.085-0.219-0.107c-0.082-0.021-0.166-0.028-0.246-0.018c-0.075,0.009-0.152,0.035-0.226,0.077l-4.322,2.495
			c-0.203,0.119-0.432,0.159-0.647,0.129c-0.218-0.029-0.424-0.129-0.584-0.289c-0.47-0.452-0.964-0.873-1.48-1.261
			c-0.514-0.387-1.056-0.746-1.621-1.073c-0.558-0.322-1.139-0.612-1.738-0.868c-0.589-0.25-1.2-0.467-1.83-0.647
			c-0.222-0.063-0.405-0.196-0.535-0.367c-0.131-0.173-0.206-0.39-0.207-0.617l-0.001-4.987c0-0.084-0.017-0.163-0.046-0.234
			c-0.031-0.074-0.078-0.143-0.137-0.202c-0.057-0.058-0.125-0.104-0.201-0.136c-0.071-0.03-0.15-0.046-0.234-0.046h-6.12
			c-0.084,0-0.163,0.017-0.233,0.046c-0.076,0.031-0.146,0.078-0.203,0.135c-0.111,0.113-0.181,0.268-0.181,0.436v4.987
			c0,0.239-0.083,0.459-0.221,0.633C304.996,113.741,304.798,113.872,304.571,113.925L304.571,113.925z M302.421,113.736
			c-0.629,0.268-1.239,0.573-1.825,0.912c-0.599,0.346-1.173,0.727-1.72,1.139c-0.548,0.413-1.071,0.86-1.567,1.338
			c-0.019,0.018-0.042,0.029-0.068,0.032c-0.025,0.003-0.053-0.002-0.074-0.015c-1.453-0.838-2.908-1.674-4.359-2.517
			c-0.172-0.093-0.357-0.15-0.545-0.171c-0.193-0.022-0.389-0.007-0.573,0.043c-0.191,0.051-0.373,0.14-0.534,0.263
			c-0.153,0.118-0.288,0.267-0.391,0.445c-1.053,1.706-2.053,3.553-3.06,5.297c-0.103,0.178-0.165,0.37-0.19,0.564
			c-0.025,0.201-0.012,0.403,0.039,0.593c0.051,0.19,0.14,0.373,0.263,0.533c0.118,0.155,0.268,0.289,0.445,0.391
			c1.39,0.858,2.897,1.673,4.318,2.494c0.022,0.013,0.039,0.033,0.049,0.056c0.011,0.024,0.014,0.051,0.007,0.076l-0.1,0.403
			l0.006,0.002c-0.043,0.195-0.083,0.395-0.12,0.597c-0.064,0.345-0.116,0.686-0.156,1.019c-0.04,0.331-0.071,0.672-0.093,1.023
			c-0.021,0.353-0.031,0.698-0.031,1.034c0,0.336,0.011,0.681,0.031,1.032c0.021,0.352,0.053,0.694,0.093,1.025
			c0.04,0.333,0.093,0.673,0.156,1.018c0.063,0.344,0.136,0.678,0.216,1.003c0.006,0.027,0.003,0.055-0.009,0.079
			c-0.012,0.026-0.031,0.047-0.053,0.058c-1.588,0.848-3.199,1.845-4.768,2.751l0.056,0.07l-0.048,0.06
			c-0.123,0.161-0.212,0.343-0.263,0.533c-0.051,0.191-0.064,0.392-0.039,0.593c0.025,0.194,0.087,0.386,0.19,0.563l3.287,5.695
			l0.061-0.037c0.032,0.03,0.066,0.059,0.101,0.085c0.161,0.122,0.343,0.211,0.534,0.262c0.189,0.051,0.391,0.065,0.592,0.039
			c0.189-0.023,0.375-0.084,0.548-0.18c1.439-0.763,2.919-1.685,4.34-2.505c0.021-0.012,0.046-0.016,0.072-0.013
			c0.026,0.003,0.052,0.015,0.071,0.033c0.495,0.478,1.019,0.924,1.566,1.337c0.546,0.411,1.12,0.792,1.718,1.137
			c0.591,0.342,1.205,0.648,1.838,0.917c0.628,0.267,1.275,0.497,1.936,0.687c0.026,0.007,0.048,0.023,0.063,0.042
			c0.017,0.022,0.026,0.048,0.024,0.073v4.987c0,0.204,0.042,0.4,0.117,0.58c0.077,0.188,0.191,0.355,0.332,0.494
			c0.14,0.14,0.308,0.253,0.492,0.331c0.181,0.075,0.377,0.117,0.58,0.117h6.12c0.203,0,0.4-0.042,0.58-0.117
			c0.186-0.077,0.353-0.191,0.494-0.331c0.14-0.139,0.253-0.307,0.331-0.494c0.075-0.18,0.116-0.376,0.116-0.58v-4.987
			c0-0.03,0.009-0.056,0.024-0.075c0.016-0.02,0.039-0.035,0.067-0.042l0.02-0.007c0.664-0.192,1.307-0.42,1.923-0.683
			c0.629-0.268,1.239-0.573,1.826-0.912c0.599-0.346,1.172-0.726,1.718-1.138c0.548-0.413,1.072-0.861,1.568-1.339
			c0.021-0.02,0.046-0.032,0.07-0.034c0.026-0.003,0.055,0.004,0.078,0.02l4.318,2.493c0.178,0.103,0.369,0.165,0.561,0.189
			c0.201,0.025,0.403,0.011,0.593-0.039c0.191-0.051,0.373-0.14,0.534-0.262c0.15-0.115,0.282-0.26,0.384-0.433
			c1.135-1.824,2.206-3.823,3.289-5.696l-0.059-0.035c0.011-0.048,0.02-0.096,0.025-0.144c0.025-0.201,0.012-0.402-0.039-0.592
			c-0.051-0.191-0.14-0.373-0.263-0.533c-0.118-0.155-0.267-0.289-0.444-0.391l-4.319-2.494c-0.022-0.013-0.039-0.033-0.049-0.056
			c-0.011-0.024-0.014-0.052-0.007-0.078l0.112-0.456l-0.007-0.002c0.038-0.178,0.075-0.358,0.108-0.542
			c0.063-0.345,0.116-0.686,0.157-1.02c0.04-0.331,0.07-0.673,0.092-1.024c0.022-0.352,0.032-0.697,0.032-1.033
			c0-0.336-0.011-0.681-0.032-1.033c-0.021-0.352-0.052-0.693-0.092-1.027c-0.041-0.33-0.093-0.67-0.157-1.019
			c-0.063-0.342-0.135-0.676-0.215-0.999c-0.007-0.026-0.003-0.054,0.009-0.08c0.011-0.024,0.03-0.044,0.055-0.057l4.313-2.491
			c0.179-0.103,0.328-0.236,0.444-0.391c0.122-0.162,0.211-0.344,0.262-0.532c0.051-0.19,0.065-0.392,0.039-0.592
			c-0.023-0.188-0.084-0.376-0.182-0.55c-1.028-1.904-2.207-3.825-3.295-5.709l-0.062,0.037c-0.033-0.03-0.066-0.059-0.102-0.085
			c-0.161-0.123-0.343-0.211-0.534-0.263c-0.19-0.05-0.391-0.064-0.592-0.04c-0.194,0.025-0.386,0.087-0.561,0.187l-0.319,0.183
			l0.001,0.004l-4.007,2.312c-0.023,0.014-0.051,0.019-0.076,0.016c-0.026-0.003-0.051-0.016-0.069-0.034l-0.01-0.011
			c-0.491-0.472-1.014-0.917-1.565-1.332c-0.548-0.413-1.119-0.791-1.71-1.133c-0.59-0.341-1.204-0.648-1.837-0.917
			c-0.628-0.268-1.274-0.497-1.935-0.687c-0.026-0.008-0.048-0.023-0.063-0.042c-0.018-0.022-0.027-0.048-0.025-0.073v-4.987
			c0-0.204-0.041-0.4-0.116-0.581c-0.078-0.187-0.192-0.354-0.332-0.494c-0.141-0.14-0.308-0.253-0.493-0.331
			c-0.18-0.075-0.377-0.117-0.58-0.117h-6.12c-0.203,0-0.4,0.041-0.58,0.117c-0.185,0.077-0.353,0.19-0.494,0.331
			c-0.276,0.275-0.447,0.656-0.447,1.074v4.987c0,0.029-0.01,0.055-0.024,0.076c-0.016,0.019-0.04,0.034-0.067,0.041l-0.02,0.007
			C303.68,113.245,303.037,113.474,302.421,113.736z"/>
		<path style="fill-rule:evenodd;clip-rule:evenodd;fill:#C0CDEA;" d="M192.817,157.789L192.817,157.789L192.817,157.789z
			 M194.969,149.592c0.75-0.749,1.785-1.212,2.928-1.212c1.143,0,2.178,0.463,2.928,1.212c0.749,0.749,1.213,1.785,1.213,2.928
			c0,1.144-0.464,2.179-1.213,2.928c-0.749,0.749-1.785,1.213-2.928,1.213c-1.144,0-2.179-0.463-2.928-1.213
			c-0.749-0.749-1.213-1.784-1.213-2.928C193.756,151.376,194.22,150.341,194.969,149.592L194.969,149.592z M195.864,145.488
			c-0.574,0.166-1.118,0.399-1.623,0.691c-0.518,0.299-0.996,0.661-1.424,1.073c-0.083,0.08-0.208,0.092-0.303,0.037l-1.924-1.111
			l-0.01-0.006c-0.11-0.06-0.236-0.071-0.351-0.04c-0.118,0.032-0.224,0.108-0.29,0.221l-0.008,0.013l-1.354,2.345
			c-0.065,0.113-0.079,0.243-0.046,0.362c0.032,0.118,0.108,0.225,0.221,0.29l0.013,0.008l1.909,1.102
			c0.1,0.058,0.146,0.173,0.12,0.28h0.001c-0.071,0.284-0.125,0.576-0.161,0.875c-0.036,0.292-0.054,0.589-0.054,0.892
			c0,0.303,0.018,0.601,0.054,0.892c0.036,0.299,0.09,0.591,0.161,0.875c0.029,0.118-0.029,0.237-0.134,0.288l-1.908,1.102l0,0
			c-0.113,0.066-0.189,0.171-0.221,0.29c-0.032,0.119-0.019,0.249,0.046,0.362l1.361,2.358l0-0.001
			c0.065,0.113,0.171,0.19,0.29,0.221c0.119,0.032,0.249,0.019,0.361-0.046l0.014-0.008l1.911-1.103
			c0.1-0.058,0.223-0.039,0.302,0.037c0.428,0.413,0.906,0.773,1.424,1.073c0.508,0.294,1.056,0.528,1.634,0.694
			c0.112,0.032,0.185,0.134,0.185,0.245v2.219c0,0.13,0.053,0.249,0.14,0.336c0.086,0.086,0.206,0.14,0.336,0.14h2.723
			c0.131,0,0.25-0.054,0.336-0.14c0.086-0.087,0.14-0.206,0.14-0.336V159.8c0-0.121,0.084-0.222,0.196-0.248
			c0.574-0.165,1.118-0.399,1.623-0.691c0.518-0.3,0.996-0.661,1.424-1.074c0.087-0.083,0.219-0.093,0.316-0.029l1.911,1.104
			c0.113,0.065,0.243,0.078,0.362,0.046c0.118-0.031,0.224-0.108,0.29-0.221l0.008-0.013l1.354-2.345l-0.001-0.001
			c0.065-0.113,0.078-0.243,0.046-0.361c-0.032-0.118-0.108-0.225-0.22-0.29l-1.922-1.11c-0.101-0.058-0.146-0.173-0.12-0.28h0
			c0.071-0.284,0.124-0.576,0.161-0.875c0.036-0.291,0.054-0.589,0.054-0.892c0-0.303-0.018-0.601-0.054-0.892
			c-0.036-0.299-0.09-0.591-0.161-0.875c-0.029-0.118,0.03-0.237,0.134-0.288l1.909-1.102c0.112-0.065,0.188-0.171,0.22-0.29
			c0.032-0.118,0.019-0.249-0.046-0.361l-0.007-0.014l-1.354-2.345h0c-0.066-0.113-0.171-0.189-0.29-0.221
			c-0.119-0.032-0.249-0.019-0.361,0.046v0.001l-1.924,1.111c-0.103,0.059-0.229,0.039-0.309-0.042
			c-0.427-0.41-0.903-0.77-1.419-1.068c-0.508-0.294-1.056-0.528-1.634-0.694c-0.112-0.032-0.184-0.134-0.185-0.245v-2.219
			c0-0.131-0.054-0.249-0.14-0.336c-0.086-0.087-0.206-0.14-0.336-0.14h-2.723c-0.131,0-0.25,0.054-0.336,0.14
			c-0.086,0.086-0.14,0.205-0.14,0.336v2.219C196.06,145.36,195.976,145.461,195.864,145.488z"/>
		<path style="fill-rule:evenodd;clip-rule:evenodd;fill:#C0CDEA;" d="M139.882,236.294L139.882,236.294L139.882,236.294z
			 M142.035,228.098c0.749-0.749,1.784-1.213,2.928-1.213c1.143,0,2.178,0.463,2.928,1.213c0.75,0.75,1.213,1.785,1.213,2.928
			c0,1.144-0.463,2.179-1.213,2.928c-0.749,0.749-1.785,1.213-2.928,1.213c-1.144,0-2.179-0.463-2.928-1.213
			c-0.749-0.749-1.213-1.784-1.213-2.928C140.822,229.883,141.285,228.848,142.035,228.098L142.035,228.098z M142.929,223.994
			c-0.574,0.165-1.118,0.399-1.622,0.691c-0.518,0.299-0.997,0.661-1.424,1.073c-0.083,0.08-0.207,0.092-0.303,0.037l-1.924-1.111
			l-0.011-0.007c-0.11-0.059-0.236-0.07-0.351-0.04c-0.118,0.032-0.224,0.108-0.29,0.221l-0.008,0.013l-1.354,2.345
			c-0.065,0.113-0.078,0.244-0.046,0.362c0.032,0.118,0.108,0.225,0.221,0.29l0.013,0.008l1.909,1.102
			c0.1,0.058,0.146,0.174,0.12,0.281h0.001c-0.07,0.284-0.124,0.576-0.161,0.875c-0.036,0.291-0.054,0.589-0.054,0.892
			c0,0.303,0.018,0.601,0.054,0.892c0.037,0.299,0.09,0.591,0.161,0.874c0.029,0.118-0.029,0.237-0.134,0.288l-1.908,1.102v0
			c-0.113,0.065-0.189,0.171-0.221,0.29c-0.032,0.119-0.019,0.249,0.046,0.362l1.362,2.358l0,0c0.065,0.113,0.172,0.189,0.29,0.221
			c0.119,0.032,0.249,0.019,0.362-0.046l0.014-0.007l1.911-1.104c0.1-0.057,0.223-0.039,0.302,0.037
			c0.428,0.413,0.906,0.774,1.424,1.073c0.508,0.294,1.056,0.528,1.634,0.694c0.112,0.032,0.184,0.134,0.185,0.245v2.219
			c0,0.131,0.054,0.25,0.14,0.336c0.086,0.087,0.205,0.14,0.336,0.14h2.724c0.131,0,0.249-0.053,0.336-0.14
			c0.086-0.086,0.14-0.205,0.14-0.336v-2.219c0-0.12,0.083-0.221,0.196-0.248c0.574-0.165,1.118-0.399,1.623-0.691
			c0.518-0.299,0.996-0.661,1.424-1.073c0.087-0.083,0.219-0.093,0.316-0.029l1.911,1.104c0.113,0.065,0.243,0.078,0.362,0.046
			c0.118-0.032,0.224-0.108,0.29-0.221l0.008-0.013l1.354-2.345l0-0.001c0.065-0.113,0.078-0.243,0.046-0.361
			c-0.032-0.118-0.108-0.225-0.221-0.29l-1.922-1.11c-0.1-0.058-0.146-0.173-0.12-0.28l-0.001-0.001
			c0.07-0.284,0.124-0.576,0.161-0.874c0.036-0.292,0.054-0.589,0.054-0.892c0-0.303-0.018-0.601-0.054-0.893
			c-0.037-0.299-0.09-0.591-0.161-0.875c-0.029-0.118,0.029-0.237,0.134-0.289l1.908-1.102c0.113-0.065,0.188-0.171,0.221-0.29
			c0.031-0.118,0.019-0.249-0.046-0.361l-0.008-0.014l-1.354-2.345l0,0c-0.066-0.113-0.172-0.189-0.29-0.221
			c-0.119-0.032-0.249-0.019-0.361,0.046v0.001l-1.924,1.111c-0.103,0.06-0.23,0.039-0.309-0.042
			c-0.426-0.41-0.903-0.77-1.418-1.068c-0.508-0.294-1.056-0.528-1.633-0.694c-0.112-0.032-0.185-0.134-0.185-0.245v-2.22
			c0-0.13-0.054-0.249-0.14-0.335c-0.087-0.087-0.205-0.141-0.336-0.141h-2.724c-0.131,0-0.25,0.054-0.336,0.141
			c-0.086,0.086-0.14,0.205-0.14,0.335v2.22C143.124,223.867,143.041,223.967,142.929,223.994z"/>
		<path style="fill-rule:evenodd;clip-rule:evenodd;fill:#FFFFFF;" d="M165.842,160.025c1.146,0,2.081-0.935,2.081-2.081
			c0-1.146-0.935-2.081-2.081-2.081c-1.147,0-2.082,0.935-2.082,2.081C163.761,159.09,164.695,160.025,165.842,160.025z"/>
		<path style="fill-rule:evenodd;clip-rule:evenodd;fill:#FFFFFF;" d="M245.272,155.352c1.146,0,2.081-0.935,2.081-2.081
			c0-1.146-0.935-2.081-2.081-2.081c-1.146,0-2.081,0.935-2.081,2.081C243.191,154.417,244.126,155.352,245.272,155.352z"/>
		<path style="fill-rule:evenodd;clip-rule:evenodd;fill:#FFFFFF;" d="M325.481,89.939c1.147,0,2.081-0.935,2.081-2.081
			s-0.935-2.082-2.081-2.082c-1.146,0-2.081,0.935-2.081,2.082S324.335,89.939,325.481,89.939z"/>
		<path style="fill-rule:evenodd;clip-rule:evenodd;fill:#FFFFFF;" d="M372.205,149.901c1.147,0,2.081-0.935,2.081-2.082
			c0-1.146-0.935-2.081-2.081-2.081c-1.145,0-2.081,0.935-2.081,2.081C370.124,148.966,371.06,149.901,372.205,149.901z"/>
		<path style="fill-rule:evenodd;clip-rule:evenodd;fill:#FFFFFF;" d="M432.946,327.451c1.147,0,2.081-0.934,2.081-2.08
			c0-1.146-0.934-2.082-2.081-2.082s-2.081,0.936-2.081,2.082C430.865,326.518,431.8,327.451,432.946,327.451z"/>
		<path style="fill-rule:evenodd;clip-rule:evenodd;fill:#FFFFFF;" d="M49.033,403.768c1.146,0,2.081-0.936,2.081-2.082
			c0-1.146-0.935-2.08-2.081-2.08c-1.146,0-2.082,0.934-2.082,2.08C46.951,402.832,47.886,403.768,49.033,403.768z"/>
		<path style="fill-rule:evenodd;clip-rule:evenodd;fill:#FFFFFF;" d="M454.751,392.865c1.146,0,2.081-0.936,2.081-2.082
			c0-1.147-0.935-2.08-2.081-2.08c-1.147,0-2.081,0.934-2.081,2.08C452.67,391.93,453.604,392.865,454.751,392.865z"/>
		<path style="fill-rule:evenodd;clip-rule:evenodd;fill:#9FB2D9;" d="M222.944,158.61c0-0.392-0.318-0.71-0.71-0.71
			s-0.71,0.318-0.71,0.71v1.67h-1.67c-0.392,0-0.71,0.318-0.71,0.71c0,0.393,0.318,0.71,0.71,0.71h1.67v1.67
			c0,0.393,0.318,0.71,0.71,0.71s0.71-0.318,0.71-0.71v-1.67h1.67c0.392,0,0.71-0.318,0.71-0.71c0-0.392-0.318-0.71-0.71-0.71h-1.67
			V158.61z"/>
		<path style="fill-rule:evenodd;clip-rule:evenodd;fill:#9FB2D9;" d="M276.677,141.477c0-0.392-0.318-0.71-0.71-0.71
			c-0.393,0-0.711,0.318-0.711,0.71v1.67h-1.67c-0.392,0-0.71,0.318-0.71,0.71c0,0.393,0.318,0.711,0.71,0.711h1.67v1.67
			c0,0.392,0.318,0.71,0.711,0.71c0.392,0,0.71-0.318,0.71-0.71v-1.67h1.67c0.393,0,0.71-0.318,0.71-0.711
			c0-0.392-0.317-0.71-0.71-0.71h-1.67V141.477z"/>
		<path style="fill-rule:evenodd;clip-rule:evenodd;fill:#9FB2D9;" d="M220.608,113.443c0-0.392-0.318-0.71-0.711-0.71
			c-0.392,0-0.71,0.318-0.71,0.71v1.67h-1.67c-0.392,0-0.71,0.318-0.71,0.71s0.318,0.71,0.71,0.71h1.67v1.67
			c0,0.392,0.318,0.71,0.71,0.71c0.392,0,0.711-0.318,0.711-0.71v-1.67h1.67c0.392,0,0.71-0.318,0.71-0.71s-0.318-0.71-0.71-0.71
			h-1.67V113.443z"/>
		<path style="fill-rule:evenodd;clip-rule:evenodd;fill:#9FB2D9;" d="M377.133,112.665c0-0.392-0.318-0.71-0.71-0.71
			c-0.393,0-0.711,0.318-0.711,0.71v1.67h-1.67c-0.392,0-0.71,0.318-0.71,0.71c0,0.393,0.318,0.711,0.71,0.711h1.67v1.67
			c0,0.392,0.318,0.71,0.711,0.71c0.392,0,0.71-0.318,0.71-0.71v-1.67h1.67c0.393,0,0.71-0.318,0.71-0.711
			c0-0.392-0.317-0.71-0.71-0.71h-1.67V112.665z"/>
		<path style="fill-rule:evenodd;clip-rule:evenodd;fill:#9FB2D9;" d="M442.546,165.619c0-0.393-0.318-0.71-0.71-0.71
			c-0.392,0-0.71,0.318-0.71,0.71v1.669h-1.67c-0.393,0-0.711,0.318-0.711,0.71c0,0.393,0.318,0.71,0.711,0.71h1.67v1.67
			c0,0.392,0.317,0.71,0.71,0.71c0.392,0,0.71-0.318,0.71-0.71v-1.67h1.67c0.393,0,0.711-0.318,0.711-0.71
			c0-0.392-0.318-0.71-0.711-0.71h-1.67V165.619z"/>
		<path style="fill-rule:evenodd;clip-rule:evenodd;fill:#9FB2D9;" d="M451.112,273.084c0-0.393-0.318-0.711-0.71-0.711
			c-0.392,0-0.711,0.318-0.711,0.711v1.668h-1.67c-0.392,0-0.71,0.318-0.71,0.711c0,0.393,0.318,0.711,0.71,0.711h1.67v1.67
			c0,0.392,0.318,0.711,0.711,0.711c0.392,0,0.71-0.318,0.71-0.711v-1.67h1.67c0.393,0,0.71-0.318,0.71-0.711
			c0-0.393-0.317-0.711-0.71-0.711h-1.67V273.084z"/>
		<path style="fill-rule:evenodd;clip-rule:evenodd;fill:#9FB2D9;" d="M60.968,313.576c0-0.391-0.318-0.709-0.71-0.709
			c-0.393,0-0.71,0.318-0.71,0.709v1.672h-1.67c-0.392,0-0.71,0.317-0.71,0.709c0,0.393,0.318,0.711,0.71,0.711h1.67v1.67
			c0,0.393,0.318,0.709,0.71,0.709c0.392,0,0.71-0.316,0.71-0.709v-1.67h1.67c0.392,0,0.71-0.318,0.71-0.711
			c0-0.392-0.318-0.709-0.71-0.709h-1.67V313.576z"/>
		<path style="fill-rule:evenodd;clip-rule:evenodd;fill:#9FB2D9;" d="M39.942,340.832c0-0.392-0.318-0.709-0.71-0.709
			c-0.392,0-0.71,0.317-0.71,0.709v1.67h-1.67c-0.392,0-0.71,0.318-0.71,0.711c0,0.393,0.318,0.711,0.71,0.711h1.67v1.67
			c0,0.391,0.318,0.709,0.71,0.709c0.392,0,0.71-0.318,0.71-0.709v-1.67h1.67c0.392,0,0.71-0.318,0.71-0.711
			c0-0.393-0.318-0.711-0.71-0.711h-1.67V340.832z"/>
		<path style="fill-rule:evenodd;clip-rule:evenodd;fill:#9FB2D9;" d="M65.641,188.98c0-0.392-0.318-0.71-0.71-0.71
			c-0.393,0-0.711,0.318-0.711,0.71v1.669h-1.67c-0.393,0-0.71,0.318-0.71,0.71c0,0.393,0.318,0.71,0.71,0.71h1.67v1.67
			c0,0.393,0.318,0.71,0.711,0.71c0.392,0,0.71-0.318,0.71-0.71v-1.67h1.67c0.392,0,0.711-0.318,0.711-0.71
			c0-0.392-0.318-0.71-0.711-0.71h-1.67V188.98z"/>
		<path style="fill-rule:evenodd;clip-rule:evenodd;fill:#9FB2D9;" d="M470.58,417.926c0-0.391-0.317-0.709-0.71-0.709
			s-0.71,0.318-0.71,0.709v1.67h-1.67c-0.392,0-0.71,0.32-0.71,0.711c0,0.393,0.317,0.711,0.71,0.711h1.67v1.67
			c0,0.393,0.317,0.711,0.71,0.711s0.71-0.318,0.71-0.711v-1.67h1.67c0.393,0,0.711-0.318,0.711-0.711
			c0-0.391-0.318-0.711-0.711-0.711h-1.67V417.926z"/>
		<path style="fill-rule:evenodd;clip-rule:evenodd;fill:#9FB2D9;" d="M210.484,62.826c0-0.392-0.318-0.71-0.71-0.71
			c-0.393,0-0.71,0.318-0.71,0.71v1.67h-1.67c-0.393,0-0.71,0.318-0.71,0.71c0,0.392,0.318,0.71,0.71,0.71h1.67v1.67
			c0,0.392,0.318,0.71,0.71,0.71c0.392,0,0.71-0.318,0.71-0.71v-1.67h1.67c0.392,0,0.71-0.318,0.71-0.71
			c0-0.392-0.318-0.71-0.71-0.71h-1.67V62.826z"/>
	</g>
</g>
</svg>
