<svg width="105" height="34" viewBox="0 0 105 34" fill="none" xmlns="http://www.w3.org/2000/svg">
<path d="M29.6631 14.4492C29.6631 15.2314 29.5664 15.9302 29.373 16.5454C29.1797 17.1606 28.916 17.7056 28.582 18.1802C28.2568 18.646 27.8789 19.0459 27.4482 19.3799C27.0176 19.7139 26.5649 19.9907 26.0903 20.2104C25.6245 20.4214 25.1499 20.5752 24.6665 20.6719C24.1919 20.7686 23.7437 20.8169 23.3218 20.8169L30.4805 27H25.1807L18.0352 20.8169H15.5698V17.3892H23.3218C23.7524 17.354 24.1436 17.2661 24.4951 17.1255C24.8555 16.9761 25.1631 16.7783 25.418 16.5322C25.6816 16.2861 25.8838 15.9917 26.0244 15.6489C26.165 15.2974 26.2354 14.8975 26.2354 14.4492V12.2871C26.2354 12.0937 26.209 11.9487 26.1562 11.8521C26.1123 11.7466 26.0508 11.6719 25.9717 11.6279C25.9014 11.5752 25.8223 11.5444 25.7344 11.5356C25.6553 11.5269 25.5806 11.5225 25.5103 11.5225H14.1987V27H10.771V9.82178C10.771 9.58447 10.8149 9.36035 10.9028 9.14941C10.9907 8.93848 11.1094 8.75391 11.2588 8.5957C11.417 8.4375 11.6016 8.31445 11.8125 8.22656C12.0234 8.13867 12.252 8.09473 12.498 8.09473H25.5103C26.2749 8.09473 26.9209 8.23535 27.4482 8.5166C27.9756 8.78906 28.4019 9.13623 28.7271 9.55811C29.061 9.97119 29.2983 10.4194 29.439 10.9028C29.5884 11.3862 29.6631 11.8389 29.6631 12.2607V14.4492ZM36.5581 15.8203H48.5947V8.09473H52.0225V27H48.5947V19.2744H36.5581V27H33.1304V8.09473H36.5581V15.8203ZM71.5869 19.2744H60.7632V15.8203H71.5869V19.2744ZM73.1294 27H60.7632C60.2886 27 59.77 26.9165 59.2075 26.7495C58.645 26.5825 58.1221 26.3101 57.6387 25.9321C57.1641 25.5454 56.7642 25.0488 56.439 24.4424C56.1226 23.8271 55.9644 23.0757 55.9644 22.188V9.82178C55.9644 9.58447 56.0083 9.36035 56.0962 9.14941C56.1841 8.93848 56.3027 8.75391 56.4521 8.5957C56.6104 8.4375 56.7949 8.31445 57.0059 8.22656C57.2168 8.13867 57.4453 8.09473 57.6914 8.09473H73.1294V11.5225H59.3921V22.188C59.3921 22.6362 59.5107 22.979 59.748 23.2163C59.9854 23.4536 60.3325 23.5723 60.7896 23.5723H73.1294V27ZM95.3438 25.5366C95.3438 25.7827 95.2954 26.0112 95.1987 26.2222C95.1108 26.4331 94.9878 26.6177 94.8296 26.7759C94.6802 26.9253 94.5 27.0439 94.2891 27.1318C94.0781 27.2197 93.854 27.2637 93.6167 27.2637C93.4058 27.2637 93.1904 27.2241 92.9707 27.145C92.7598 27.0659 92.5708 26.9385 92.4038 26.7627L79.8794 13.6846V27H76.4517V9.55811C76.4517 9.20654 76.5483 8.89014 76.7417 8.60889C76.9438 8.31885 77.1987 8.10352 77.5063 7.96289C77.8315 7.83105 78.1655 7.80029 78.5083 7.87061C78.8511 7.93213 79.1455 8.09033 79.3916 8.34521L91.916 21.4102V8.09473H95.3438V25.5366ZM102.792 27H99.3647V8.09473H102.792V27Z" fill="#2a2763"/>
</svg>
