<svg width="249" height="60" viewBox="0 0 249 60" fill="none" xmlns="http://www.w3.org/2000/svg">
<path d="M65.5284 24.0909H67.8182V37.608C67.8182 38.8144 67.5966 39.8393 67.1534 40.6825C66.7102 41.5258 66.0855 42.166 65.2791 42.603C64.4728 43.04 63.5218 43.2585 62.4261 43.2585C61.392 43.2585 60.4718 43.0708 59.6655 42.6953C58.8591 42.3137 58.2251 41.772 57.7635 41.0703C57.3018 40.3686 57.071 39.5346 57.071 38.5682H59.3239C59.3239 39.1037 59.4562 39.5715 59.7209 39.9716C59.9917 40.3655 60.361 40.6733 60.8288 40.8949C61.2966 41.1165 61.8291 41.2273 62.4261 41.2273C63.0848 41.2273 63.6449 41.0888 64.1065 40.8118C64.5682 40.5348 64.919 40.1286 65.1591 39.593C65.4053 39.0514 65.5284 38.3897 65.5284 37.608V24.0909ZM72.407 24.0909H75.1399L81.5661 39.7869H81.7876L88.2138 24.0909H90.9467V43H88.8047V28.6335H88.62L82.7109 43H80.6428L74.7337 28.6335H74.549V43H72.407V24.0909ZM95.5378 43V24.0909H101.927C103.41 24.0909 104.623 24.3587 105.565 24.8942C106.513 25.4235 107.214 26.1406 107.67 27.0455C108.125 27.9503 108.353 28.9598 108.353 30.0739C108.353 31.188 108.125 32.2005 107.67 33.1115C107.221 34.0225 106.525 34.7488 105.583 35.2905C104.642 35.826 103.435 36.0938 101.964 36.0938H97.3844V34.0625H101.89C102.906 34.0625 103.721 33.8871 104.337 33.5362C104.952 33.1854 105.399 32.7114 105.676 32.1143C105.959 31.5111 106.1 30.831 106.1 30.0739C106.1 29.3168 105.959 28.6397 105.676 28.0426C105.399 27.4455 104.949 26.9777 104.328 26.6392C103.706 26.2945 102.881 26.1222 101.853 26.1222H97.8276V43H95.5378ZM110.888 43H108.487L115.43 24.0909H117.794L124.737 43H122.336L116.686 27.0824H116.538L110.888 43ZM111.774 35.6136H121.45V37.6449H111.774V35.6136ZM127.682 43V24.0909H134.072C135.555 24.0909 136.768 24.3587 137.709 24.8942C138.657 25.4235 139.359 26.1406 139.814 27.0455C140.27 27.9503 140.498 28.9598 140.498 30.0739C140.498 31.188 140.27 32.2005 139.814 33.1115C139.365 34.0225 138.67 34.7488 137.728 35.2905C136.786 35.826 135.58 36.0938 134.108 36.0938H129.529V34.0625H134.035C135.05 34.0625 135.866 33.8871 136.481 33.5362C137.097 33.1854 137.543 32.7114 137.82 32.1143C138.103 31.5111 138.245 30.831 138.245 30.0739C138.245 29.3168 138.103 28.6397 137.82 28.0426C137.543 27.4455 137.094 26.9777 136.472 26.6392C135.85 26.2945 135.026 26.1222 133.998 26.1222H129.972V43H127.682ZM144.186 43V24.0909H155.598V26.1222H146.476V32.5114H155.007V34.5426H146.476V40.9688H155.746V43H144.186ZM159.725 43V24.0909H166.115C167.592 24.0909 168.804 24.3433 169.752 24.848C170.7 25.3466 171.402 26.0329 171.857 26.907C172.313 27.781 172.541 28.7751 172.541 29.8892C172.541 31.0033 172.313 31.9912 171.857 32.853C171.402 33.7147 170.703 34.3918 169.762 34.8842C168.82 35.3705 167.616 35.6136 166.151 35.6136H160.981V33.5455H166.078C167.087 33.5455 167.9 33.3977 168.515 33.1023C169.137 32.8068 169.586 32.3883 169.863 31.8466C170.146 31.2988 170.288 30.6463 170.288 29.8892C170.288 29.1321 170.146 28.4704 169.863 27.9041C169.58 27.3378 169.128 26.9008 168.506 26.593C167.884 26.2791 167.062 26.1222 166.041 26.1222H162.015V43H159.725ZM168.626 34.5057L173.279 43H170.62L166.041 34.5057H168.626ZM182.191 43H176.356V24.0909H182.45C184.284 24.0909 185.854 24.4695 187.159 25.2266C188.464 25.9775 189.464 27.0578 190.159 28.4673C190.855 29.8707 191.203 31.5511 191.203 33.5085C191.203 35.4782 190.852 37.174 190.15 38.5959C189.449 40.0116 188.427 41.1011 187.085 41.8643C185.743 42.6214 184.112 43 182.191 43ZM178.646 40.9688H182.044C183.607 40.9688 184.903 40.6671 185.931 40.0639C186.959 39.4607 187.725 38.602 188.23 37.4879C188.734 36.3738 188.987 35.0473 188.987 33.5085C188.987 31.982 188.738 30.6679 188.239 29.5661C187.74 28.4581 186.996 27.6087 186.005 27.0178C185.014 26.4207 183.779 26.1222 182.302 26.1222H178.646V40.9688ZM210.998 33.5455C210.998 35.5398 210.638 37.2633 209.918 38.7159C209.198 40.1686 208.21 41.2888 206.954 42.0767C205.699 42.8646 204.264 43.2585 202.652 43.2585C201.039 43.2585 199.605 42.8646 198.349 42.0767C197.093 41.2888 196.105 40.1686 195.385 38.7159C194.665 37.2633 194.305 35.5398 194.305 33.5455C194.305 31.5511 194.665 29.8277 195.385 28.375C196.105 26.9223 197.093 25.8021 198.349 25.0142C199.605 24.2263 201.039 23.8324 202.652 23.8324C204.264 23.8324 205.699 24.2263 206.954 25.0142C208.21 25.8021 209.198 26.9223 209.918 28.375C210.638 29.8277 210.998 31.5511 210.998 33.5455ZM208.782 33.5455C208.782 31.9081 208.508 30.5263 207.961 29.3999C207.419 28.2734 206.683 27.4209 205.754 26.8423C204.831 26.2637 203.797 25.9744 202.652 25.9744C201.507 25.9744 200.47 26.2637 199.54 26.8423C198.617 27.4209 197.881 28.2734 197.333 29.3999C196.792 30.5263 196.521 31.9081 196.521 33.5455C196.521 35.1828 196.792 36.5646 197.333 37.6911C197.881 38.8175 198.617 39.67 199.54 40.2486C200.47 40.8272 201.507 41.1165 202.652 41.1165C203.797 41.1165 204.831 40.8272 205.754 40.2486C206.683 39.67 207.419 38.8175 207.961 37.6911C208.508 36.5646 208.782 35.1828 208.782 33.5455ZM230.064 30H227.775C227.639 29.3414 227.402 28.7628 227.064 28.2642C226.731 27.7656 226.325 27.3471 225.845 27.0085C225.371 26.6638 224.845 26.4053 224.266 26.233C223.687 26.0606 223.084 25.9744 222.456 25.9744C221.311 25.9744 220.274 26.2637 219.345 26.8423C218.422 27.4209 217.686 28.2734 217.138 29.3999C216.596 30.5263 216.326 31.9081 216.326 33.5455C216.326 35.1828 216.596 36.5646 217.138 37.6911C217.686 38.8175 218.422 39.67 219.345 40.2486C220.274 40.8272 221.311 41.1165 222.456 41.1165C223.084 41.1165 223.687 41.0303 224.266 40.858C224.845 40.6856 225.371 40.4302 225.845 40.0916C226.325 39.7469 226.731 39.3253 227.064 38.8267C227.402 38.322 227.639 37.7434 227.775 37.0909H230.064C229.892 38.0573 229.578 38.9221 229.123 39.6854C228.667 40.4486 228.101 41.098 227.424 41.6335C226.747 42.1629 225.986 42.5661 225.143 42.843C224.306 43.12 223.41 43.2585 222.456 43.2585C220.844 43.2585 219.409 42.8646 218.154 42.0767C216.898 41.2888 215.91 40.1686 215.19 38.7159C214.47 37.2633 214.11 35.5398 214.11 33.5455C214.11 31.5511 214.47 29.8277 215.19 28.375C215.91 26.9223 216.898 25.8021 218.154 25.0142C219.409 24.2263 220.844 23.8324 222.456 23.8324C223.41 23.8324 224.306 23.9709 225.143 24.2479C225.986 24.5249 226.747 24.9311 227.424 25.4666C228.101 25.996 228.667 26.6423 229.123 27.4055C229.578 28.1626 229.892 29.0275 230.064 30ZM234.72 24.0909L239.595 31.9574H239.743L244.618 24.0909H247.314L241.368 33.5455L247.314 43H244.618L239.743 35.2812H239.595L234.72 43H232.024L238.118 33.5455L232.024 24.0909H234.72Z" fill="white"/>
<path d="M1.8765 0.00255015C1.34188 0.104228 0.860394 0.391569 0.517095 0.813815C0.173797 1.23606 -0.00922561 1.76604 0.000358154 2.31014V57.6924C0.000358154 58.3044 0.243488 58.8914 0.676262 59.3241C1.10904 59.7569 1.696 60 2.30804 60H39.2309C39.8429 60 40.4299 59.7569 40.8627 59.3241C41.2954 58.8914 41.5386 58.3044 41.5386 57.6924V50.7696C41.542 50.6974 41.542 50.625 41.5386 50.5527V46.1544L36.9232 41.5392V50.4096C36.9138 50.5294 36.9138 50.6498 36.9232 50.7696V55.3848H4.61572V36.9241H11.5388V32.3089H4.61572V4.61774H36.9232V9.23293C36.9198 9.30519 36.9198 9.37758 36.9232 9.44984V23.0785L39.2309 25.3861L41.5386 23.0785V9.59291C41.5479 9.4731 41.5479 9.35274 41.5386 9.23293V2.31014C41.5386 1.69813 41.2954 1.11119 40.8627 0.678429C40.4299 0.245671 39.8429 0.00255015 39.2309 0.00255015H2.30804C2.23577 -0.000850049 2.16338 -0.000850049 2.09112 0.00255015C2.01885 -0.000850049 1.94646 -0.000850049 1.87419 0.00255015H1.8765ZM13.8464 13.8481L32.3079 32.3089H30.0002V36.9241H36.9232L46.5139 46.5144C46.3247 47.1444 46.1539 47.7744 46.1539 48.462C46.1539 52.258 49.2808 55.3848 53.077 55.3848C56.8731 55.3848 60 52.258 60 48.462C60 44.666 56.8731 41.5392 53.077 41.5392C52.3893 41.5392 51.7593 41.71 51.1293 41.8992L43.7032 34.5449L51.0577 27.3337C51.7062 27.5368 52.3662 27.6937 53.077 27.6937C56.8731 27.6937 60 24.5669 60 20.7709C60 16.9749 56.8731 13.8481 53.077 13.8481C49.2808 13.8481 46.1539 16.9749 46.1539 20.7709C46.1539 21.4586 46.3247 22.0885 46.5139 22.7185L39.1617 30.0705L26.1071 17.0903C24.0279 15.0158 21.231 13.8481 18.4618 13.8481H13.8464ZM53.077 18.4633C54.3785 18.4633 55.3846 19.4694 55.3846 20.7709C55.3846 22.0724 54.3785 23.0785 53.077 23.0785C51.7754 23.0785 50.7693 22.0724 50.7693 20.7709C50.7693 19.4694 51.7754 18.4633 53.077 18.4633ZM16.1541 32.3089V36.9241H25.3848V32.3089H16.1541ZM53.077 46.1544C54.3785 46.1544 55.3846 47.1605 55.3846 48.462C55.3846 49.7635 54.3785 50.7696 53.077 50.7696C51.7754 50.7696 50.7693 49.7635 50.7693 48.462C50.7693 47.1605 51.7754 46.1544 53.077 46.1544Z" fill="white"/>
</svg>
